<svg width="126" height="42" viewBox="0 0 276 192" fill="none" xmlns="http://www.w3.org/2000/svg">
<g id="croissant">
<g id="030   Croissant">
<path id="Shape" d="M228.547 94.7174C228.547 94.7174 228.595 94.7611 228.595 94.7174C237.437 99.2609 252.947 104.766 268.409 99.0425C288.175 91.7467 264.957 63.0441 248.549 53.8698L209.822 59.7239L228.547 94.7174Z" fill="#F0C419"/>
<path id="Shape_2" d="M185.422 96.9455H185.47C194.974 100.946 205.725 101.629 215.733 98.8678C220.15 97.9035 224.445 96.5124 228.547 94.7175H228.595C228.646 94.7197 228.697 94.7041 228.736 94.6738C228.736 94.6738 224.008 94.6738 233.465 72.8301C236.227 65.2097 241.501 58.5794 248.549 53.8698L248.696 53.7824C250.481 52.7951 251.593 51.0318 251.644 49.1105C251.695 47.1891 250.677 45.3777 248.946 44.311C240.486 39.4417 231.087 36.1305 221.265 34.56H221.218L176.722 33.5115L185.422 96.9455Z" fill="#F29C1F"/>
<path id="Shape_3" d="M123.856 13.7647C165.988 3.71665 193.792 13.0657 209.207 22.0653C214.671 24.802 218.922 29.2239 221.218 34.5599C204.7 41.6935 193.269 56.1263 190.908 72.8301C189.927 81.0098 188.106 89.0847 185.47 96.9455H185.422C182.112 105.683 177.1 110.358 167.974 110.445C162.885 110.314 157.853 109.414 153.079 107.78L123.856 13.7647Z" fill="#E57E25"/>
<path id="Shape_4" d="M11.2208 64.0926C6.03668 73.6442 2.72286 83.9679 1.43256 94.5864L1.38528 94.6301C-2.321 120.991 8.50806 147.316 30.2297 164.748L123.951 132.42C128.112 130.41 134.164 126.566 134.164 120.886L129.436 77.1988L34.8638 42.2489L11.2208 64.0926Z" fill="#E57E25"/>
<path id="Oval" d="M240.558 138.361C247.087 138.361 252.379 133.471 252.379 127.439C252.379 121.407 247.087 116.517 240.558 116.517C234.029 116.517 228.736 121.407 228.736 127.439C228.736 133.471 234.029 138.361 240.558 138.361Z" fill="#F29C1F"/>
<path id="Oval_2" d="M209.822 125.255C212.434 125.255 214.551 123.299 214.551 120.886C214.551 118.473 212.434 116.517 209.822 116.517C207.21 116.517 205.093 118.473 205.093 120.886C205.093 123.299 207.21 125.255 209.822 125.255Z" fill="#F0C419"/>
<path id="Oval_3" d="M190.908 129.624C193.519 129.624 195.636 127.668 195.636 125.255C195.636 122.842 193.519 120.886 190.908 120.886C188.296 120.886 186.179 122.842 186.179 125.255C186.179 127.668 188.296 129.624 190.908 129.624Z" fill="#F0C419"/>
<path id="Shape_5" d="M134.164 156.666C134.435 151.89 133.762 147.108 132.178 142.555C130.495 138.543 127.648 135.036 123.951 132.42C122.225 131.143 120.408 129.975 118.513 128.925V128.881C115.96 127.465 113.323 126.181 110.616 125.036C102.892 121.767 94.9656 118.923 86.8784 116.517C44.321 103.411 15.9494 133.992 30.1352 164.574C40.6799 187.291 69.4771 190.742 83.6156 190.961C86.2808 191.052 88.9495 190.994 91.607 190.786L100.97 189.912L134.164 156.666Z" fill="#F29C1F"/>
<path id="Shape_6" d="M94.6191 174.263C93.2404 177.908 93.6826 181.93 95.8263 185.244C97.9701 188.559 101.595 190.823 105.722 191.428C113.614 192.366 121.617 192.149 129.436 190.786C156.739 186.583 166.527 174.285 129.289 153.892C126.079 152.075 122.21 151.531 118.56 152.385C107.056 155.417 98.0269 163.669 94.6191 174.263V174.263Z" fill="#F0C419"/>
<path id="Shape_7" d="M134.164 120.886C134.164 120.886 91.607 29.1427 11.2208 64.0926C11.2208 64.0926 10.9371 63.0004 10.5588 61.6024C8.13304 52.6247 15.207 46.5652 21.288 40.6325C28.1953 33.8476 35.5818 27.4932 43.3989 21.611C44.4109 20.8509 45.437 20.0994 46.4678 19.3611C54.8843 12.9402 64.2661 7.68355 74.3193 3.75599C84.725 -0.311094 96.3883 -0.69216 107.079 2.68565C116.334 6.31594 124.144 12.5063 129.436 20.4052C157.807 59.7239 167.265 120.886 134.164 120.886Z" fill="#F29C1F"/>
<path id="Shape_8" d="M50.6999 43.1227C48.7235 43.1237 46.955 41.9891 46.2655 40.2779C45.5761 38.5667 46.1113 36.6399 47.6073 35.4468C49.1835 34.2003 50.7597 32.9872 52.3359 31.8076C53.2817 31.0999 54.2274 30.4053 55.1731 29.7238C62.5066 24.1243 70.6567 19.5064 79.3836 16.0059C86.5358 13.1339 94.5718 12.7521 102.005 14.9312C104.444 15.7938 105.665 18.3199 104.731 20.5734C103.798 22.827 101.063 23.9546 98.6242 23.092C93.365 21.7052 87.7438 22.086 82.7598 24.1667C74.9091 27.3728 67.5764 31.5673 60.9704 36.6307C60.0578 37.2773 59.1593 37.9413 58.2656 38.6054C56.7651 39.7238 55.274 40.8757 53.7924 42.0611C52.9329 42.7465 51.8352 43.1233 50.6999 43.1227V43.1227Z" fill="#F0C419"/>
</g>
</g>
</svg>
