<svg width="74" height="86" viewBox="0 0 324 336" fill="none" xmlns="http://www.w3.org/2000/svg">
<g id="england">
<g id="Group">
<path id="Vector" d="M205.124 336H140.437C136.461 336 132.807 334.002 130.931 330.801C129.055 327.601 129.261 323.716 131.466 320.696L172.78 264.114V257.25H140.436C134.482 257.25 129.655 252.843 129.655 247.406V208.031C129.655 205.421 130.79 202.917 132.813 201.071L172.78 164.579V135.365L135.615 118.399C131.962 116.731 129.655 113.323 129.655 109.594V74.296L111.25 57.4914C107.089 53.6918 107.034 47.5473 111.126 43.6853L154.251 2.99775C156.283 1.0815 159.078 0 161.999 0H226.687C232.641 0 237.468 4.40737 237.468 9.84375V46.454L254.636 62.1292L296.196 81.102C298.754 82.2695 300.699 84.317 301.602 86.7937L323.165 145.856C324.861 150.504 322.557 155.582 317.758 157.774L277.848 175.994L261.367 206.088L298.997 240.446C301.019 242.292 302.156 244.796 302.156 247.406V286.781C302.156 291.019 299.186 294.78 294.783 296.12L232.51 315.072L212.747 333.116C210.726 334.962 207.983 336 205.124 336V336Z" fill="black"/>
</g>
<g id="Group_2">
<path id="Vector_2" d="M97.3118 237.562H32.6243C26.6701 237.562 21.843 233.155 21.843 227.719V212.109L3.43871 195.304C1.41686 193.458 0.280518 190.954 0.280518 188.344V148.969C0.280518 143.532 5.10764 139.125 11.0618 139.125H28.1587L46.563 122.321C48.5848 120.475 51.3269 119.438 54.1861 119.438H75.7486C78.6085 119.438 81.3505 120.475 83.3716 122.321L104.934 142.009C106.956 143.855 108.092 146.358 108.092 148.969V168.656C108.092 171.267 106.957 173.77 104.934 175.616L88.8665 190.287L106.954 223.316C108.625 226.367 108.447 229.991 106.482 232.893C104.518 235.796 101.048 237.562 97.3118 237.562V237.562Z" fill="black"/>
</g>
</g>
</svg>
