
<svg width="60" height="66" viewBox="0 0 240 231" fill="none" xmlns="http://www.w3.org/2000/svg">

<g id="Fotball">
<path id="Vector" d="M149.925 144.321C183.42 112.083 183.42 59.8137 149.925 27.5752C116.43 -4.66339 62.1249 -4.66339 28.6303 27.5752C-4.86435 59.8137 -4.86435 112.083 28.6303 144.321C62.1249 176.56 116.43 176.56 149.925 144.321Z" fill="#EFEFEF"/>
<path id="Vector_2" d="M89.2968 3.38379C86.9282 3.38379 84.584 3.47989 82.2646 3.66081C126.413 7.10551 161.016 42.693 161.016 85.9482C161.016 129.236 126.367 164.789 82.2675 168.235C84.5864 168.416 86.9296 168.513 89.2968 168.513C136.689 168.513 175.078 131.513 175.078 85.9482C175.078 40.4209 136.747 3.38379 89.2968 3.38379Z" fill="#DCDCDC"/>
<path id="Vector_3" d="M89.2968 54.3251L57.127 76.8219L69.4148 113.222H109.179L121.467 76.8219L89.2968 54.3251Z" fill="#FECE3F"/>
<path id="Vector_4" d="M89.2969 54.3251L82.2656 59.242L104.694 74.9265C106.31 76.0562 106.987 78.0594 106.369 79.8876L95.1164 113.222H109.179L121.467 76.8214L89.2969 54.3251Z" fill="#FDB720"/>
<g id="Group">
<path id="Vector_5" d="M118.94 8.45L89.2969 29.1732L59.6541 8.45C68.8959 5.17494 78.8761 3.38379 89.2969 3.38379C99.7176 3.38379 109.698 5.17494 118.94 8.45Z" fill="#2387EB"/>
<path id="Vector_6" d="M82.2736 3.66171C93.4978 4.53834 104.102 7.49667 113.68 12.1266L118.939 8.45C109.698 5.17494 99.7176 3.38379 89.2968 3.38379C86.9315 3.38379 84.5901 3.48079 82.2736 3.66171Z" fill="#207BD6"/>
<g id="Group_2">
<path id="Vector_7" d="M33.2011 68.4045L3.58687 89.1074C3.53719 88.0611 3.51562 87.0081 3.51562 85.9483C3.51562 66.6747 10.3777 48.9391 21.885 34.8892L33.2011 68.4045Z" fill="#2387EB"/>
<path id="Vector_8" d="M65.9479 165.416C46.1222 160.028 29.2087 147.954 18.014 131.88H54.6253L65.9479 165.416Z" fill="#2387EB"/>
<path id="Vector_9" d="M160.58 131.88C149.385 147.954 132.472 160.028 112.646 165.416L123.969 131.88H160.58Z" fill="#2387EB"/>
</g>
<path id="Vector_10" d="M160.58 131.88H146.517C138.502 143.377 127.566 152.83 114.727 159.252L112.646 165.415C132.472 160.028 149.385 147.954 160.58 131.88Z" fill="#207BD6"/>
<path id="Vector_11" d="M175.078 85.9483C175.078 87.0081 175.057 88.0606 175.007 89.1069L145.393 68.404L156.708 34.8887C168.216 48.9395 175.078 66.6746 175.078 85.9483Z" fill="#2387EB"/>
<path id="Vector_12" d="M175.078 85.9483C175.078 66.6747 168.216 48.9391 156.709 34.8892L151.95 48.9838C156.745 58.1841 159.804 68.3621 160.72 79.1193L175.007 89.1069C175.057 88.0611 175.078 87.0081 175.078 85.9483V85.9483Z" fill="#207BD6"/>
</g>
<g id="Group_3">
<path id="Vector_13" d="M149.03 22.0587C147.588 20.8085 145.365 20.9199 144.064 22.3082C142.765 23.6969 142.882 25.8364 144.324 27.087C147.376 29.7327 150.193 32.5827 152.772 35.5993L142.578 65.7917L122.018 73.0249L92.8125 52.6017V30.8976L119.458 12.2696C124.101 14.0292 128.587 16.1926 132.853 18.7606C134.498 19.7519 136.668 19.2705 137.697 17.6859C138.727 16.1014 138.227 14.0134 136.581 13.0226C122.428 4.50315 106.078 0 89.2969 0C73.7648 0 58.4723 3.89361 45.0731 11.2603C32.0962 18.3947 21.0867 28.6449 13.2356 40.9037C12.217 42.4945 12.7308 44.5789 14.3836 45.5598C14.9587 45.9009 15.5958 46.0637 16.2253 46.0637C17.4047 46.0637 18.5569 45.4926 19.2216 44.4553C19.6945 43.7167 20.1816 42.9872 20.6789 42.2649L29.0681 67.1118L7.11234 82.4607C7.50844 73.6249 9.40875 65.0134 12.7814 56.8156C13.4963 55.0777 12.6127 53.112 10.8075 52.4235C9.00281 51.7363 6.95906 52.5859 6.24469 54.3238C2.10047 64.3935 0 75.0335 0 85.9482C0 133.34 40.0584 171.896 89.2969 171.896C138.535 171.896 178.594 133.34 178.594 85.9482C178.594 61.6328 167.818 38.346 149.03 22.0587V22.0587ZM158.651 128.492L125.639 128.408L113.092 112.58L124.281 79.4347L144.84 72.2015L171.405 90.7717C170.538 104.592 165.975 117.469 158.651 128.492V128.492ZM157.906 42.2906C166.06 54.1763 170.812 68.0579 171.475 82.4566L149.526 67.1118L157.906 42.2906ZM106.625 109.838H71.9691L61.2595 78.1141L89.2969 58.508L117.334 78.1141L106.625 109.838ZM111.261 9.63568L89.2969 24.9913L67.3378 9.63929C74.4539 7.74888 81.8438 6.76758 89.2969 6.76758C96.7739 6.76758 104.155 7.74662 111.261 9.63568V9.63568ZM25.8211 35.5979C32.1694 28.1942 39.8841 21.9066 48.5602 17.1364C51.9628 15.2659 55.5023 13.6475 59.1384 12.2714L85.7812 30.8976V52.6017L56.5758 73.0253L36.0159 65.7921L25.8211 35.5979ZM33.7523 72.201L54.3122 79.4342L65.5012 112.58L52.8848 128.496H19.9453C12.6192 117.472 8.05594 104.594 7.18828 90.7713L33.7523 72.201ZM24.9848 135.264H52.0706L60.4575 160.103C46.4152 155.027 34.1869 146.358 24.9848 135.264V135.264ZM116.865 160.55L119.003 154.216C119.603 152.439 118.593 150.53 116.747 149.952C114.901 149.374 112.917 150.347 112.317 152.124L108.677 162.904C102.459 164.354 95.9709 165.129 89.2969 165.129C82.1864 165.129 75.2845 164.255 68.6991 162.615L58.538 132.522L71.1544 116.605H107.439L119.27 131.53L116.968 138.348C116.368 140.125 117.378 142.034 119.225 142.612C119.586 142.725 119.952 142.779 120.312 142.779C121.793 142.779 123.172 141.87 123.654 140.44L125.432 135.175L153.622 135.247C144.142 146.683 131.447 155.543 116.865 160.55V160.55Z" fill="black"/>
<path id="Vector_14" d="M67.8567 175.068C66.4833 173.747 64.2577 173.747 62.8847 175.068C61.5117 176.39 61.5117 178.532 62.8847 179.853L94.2455 210.038C94.9322 210.699 95.8322 211.029 96.7317 211.029C97.6313 211.029 98.5313 210.699 99.218 210.038C100.591 208.717 100.591 206.574 99.218 205.253L67.8567 175.068Z" fill="black"/>
<path id="Vector_15" d="M116.09 175.654C114.716 174.333 112.491 174.333 111.118 175.654C109.745 176.976 109.745 179.118 111.118 180.439L141.589 209.768C142.276 210.428 143.176 210.759 144.075 210.759C144.975 210.759 145.875 210.429 146.562 209.768C147.935 208.446 147.935 206.304 146.562 204.983L116.09 175.654Z" fill="black"/>
<path id="Vector_16" d="M223.353 149.245C224.252 149.245 225.152 148.915 225.839 148.254C227.212 146.933 227.212 144.79 225.839 143.469L195.367 114.14C193.994 112.819 191.768 112.819 190.395 114.14C189.022 115.462 189.022 117.604 190.395 118.925L220.867 148.254C221.553 148.915 222.453 149.245 223.353 149.245V149.245Z" fill="black"/>
<path id="Vector_17" d="M225.069 105.472C225.756 106.133 226.655 106.463 227.555 106.463C228.455 106.463 229.355 106.133 230.041 105.472C231.414 104.15 231.414 102.008 230.041 100.687L191.166 63.2683C189.793 61.9468 187.567 61.9463 186.194 63.2683C184.821 64.5897 184.821 66.7324 186.194 68.0534L225.069 105.472Z" fill="black"/>
<path id="Vector_18" d="M222.367 185.694C223.053 186.355 223.953 186.685 224.853 186.685C225.752 186.685 226.652 186.355 227.339 185.694C228.712 184.372 228.712 182.23 227.339 180.909L208.757 163.023C207.384 161.702 205.158 161.701 203.785 163.023C202.412 164.345 202.412 166.487 203.785 167.808L222.367 185.694Z" fill="black"/>
<path id="Vector_19" d="M163.066 187.18C161.693 185.858 159.467 185.858 158.094 187.18C156.721 188.501 156.721 190.644 158.094 191.965L176.677 209.851C177.363 210.511 178.263 210.842 179.163 210.842C180.062 210.842 180.962 210.512 181.649 209.851C183.022 208.529 183.022 206.387 181.649 205.066L163.066 187.18Z" fill="black"/>
<path id="Vector_20" d="M238.97 225.224L166.44 155.413C165.068 154.092 162.842 154.092 161.468 155.413C160.095 156.735 160.095 158.877 161.468 160.198L233.998 230.009C234.685 230.669 235.584 231 236.484 231C237.384 231 238.284 230.67 238.971 230.009C240.343 228.688 240.343 226.545 238.97 225.224Z" fill="black"/>
</g>
</g>
</svg>
