<svg width="74" height="69" viewBox="0 0 24 19" fill="none" xmlns="http://www.w3.org/2000/svg">
<g id="France">
<path id="Vector" d="M4.39799 9.21104C4.96899 10.105 5.48199 10.757 5.33099 11.802C5.18499 12.814 5.24499 13.877 4.74399 14.807C4.38899 15.467 4.97399 15.495 5.27099 15.75C6.44199 16.762 7.94699 16.354 9.27799 16.673C10.278 16.913 11.748 17.881 12.026 15.688C12.076 15.294 12.687 15.182 13.156 15.166C13.906 15.135 14.611 15.303 15.309 15.555C16.299 15.91 17.968 15.202 18.37 14.295C18.539 13.912 18.358 13.855 18.047 13.699C17.219 13.288 17.269 12.634 17.472 11.799C17.646 11.072 17.784 10.012 16.875 9.67804C16.041 9.37104 16.571 9.07304 16.759 8.89304C17.658 8.01604 18.186 6.97704 18.727 5.83304C19.277 4.67304 18.716 4.65104 18.034 4.45204C15.512 3.71404 13.193 2.57804 11.082 1.01004C10.278 0.411041 9.58699 0.602041 9.52799 1.59704C9.46899 2.56804 9.08599 2.90504 8.19899 2.91204C7.84799 2.91704 7.50199 3.02204 7.34299 3.38304C6.83099 4.55004 6.10899 4.02404 5.47899 3.57004C5.14899 3.33004 4.91699 2.99704 4.48199 3.29404C4.00499 3.61804 4.29799 3.94304 4.48099 4.29404C5.01199 5.30804 4.76699 5.47804 3.61199 5.41304C3.37299 5.39804 3.17599 5.30904 2.99299 5.20704C2.68599 5.03704 2.41499 4.84204 2.04299 4.94304C1.71199 5.02404 1.38499 5.13104 1.04999 5.17904C0.59899 5.24404 -0.0130099 5.02104 -9.9301e-06 5.81904C0.0109901 6.50304 0.20799 6.99804 0.99899 7.19504C2.30699 7.52104 3.49199 7.79104 4.39799 9.21104Z" fill="black"/>
<path id="Vector_2" d="M21.9 16.6421C21.558 17.1241 21.715 17.6591 21.991 18.1411C22.141 18.4051 22.356 18.6641 22.677 18.5231C23.198 18.2861 23.198 17.7461 23.204 17.2761C23.209 16.8151 23.361 16.3121 22.912 15.7321C22.532 16.0631 22.144 16.3001 21.9 16.6421Z" fill="black"/>
</g>
</svg>
