<svg width="70" height="70" viewBox="0 0 22 22" fill="none" xmlns="http://www.w3.org/2000/svg">
<g clip-path="url(#clip0)">
<path d="M20.321 10.402C19.481 9.34701 19.814 8.09401 19.554 6.95901C19.413 6.35001 18.462 6.08601 18.754 5.63501C20.223 3.37601 17.234 2.52401 17.292 0.734011C17.295 0.617011 16.893 0.334011 16.659 0.572011C15.673 1.57101 14.183 1.48901 13.105 2.26301C12.636 2.59701 12.201 2.57401 11.688 2.33301C11.922 1.88801 12.14 1.47601 12.357 1.06201C11.52 1.69901 10.414 1.66401 10.071 1.04001C9.19996 -0.552989 7.86896 0.205011 6.55796 0.0370108C7.65896 0.524011 6.60896 1.26801 6.93596 1.77301C7.21696 2.20701 7.49196 2.61001 6.86496 2.82701C6.35996 3.00501 6.48196 4.08601 5.37496 3.51901C4.03296 2.83401 3.46196 3.43801 3.53396 4.96001C3.56096 5.52201 3.49396 6.11901 2.94296 6.42901C2.69296 6.57301 2.52896 6.61201 2.63796 6.94901C2.97896 8.01201 2.75096 8.44201 1.70796 8.63901C1.39696 8.70001 0.884965 8.81101 1.04396 9.03001C1.87496 10.173 0.208965 11.589 1.50096 12.635C1.64896 12.754 1.61796 12.95 1.58396 13.176C1.26996 15.244 1.98896 16.186 4.07196 16.546C4.52096 16.623 4.95996 16.769 5.61196 16.934C4.79596 17.779 4.58696 18.712 4.40996 19.674C4.23796 20.607 4.63896 21.001 5.47696 20.695C6.74097 20.236 7.90996 20.643 9.12196 20.833C9.57796 20.905 10.045 21.489 10.1 21.417C11.02 20.233 12.385 21.634 13.413 20.783C13.906 20.377 14.772 20.345 15.459 20.688C16.278 21.096 16.362 20.79 16.072 20.101C15.794 19.435 15.748 19.089 16.611 18.663C18.305 17.822 18.245 17.648 16.686 16.439C16.325 16.163 15.896 15.955 15.584 15.63C14.939 14.957 14.277 13.745 14.923 13.285C16.184 12.387 17.818 11.538 19.29 11.549C20.639 11.559 20.5 10.626 20.321 10.402Z" fill="#121111"/>
</g>
<defs>
<clipPath id="clip0">
<rect width="21.423" height="21.423" fill="white"/>
</clipPath>
</defs>
</svg>
