<svg width="60" height="60" viewBox="0 0 46 36" fill="none" xmlns="http://www.w3.org/2000/svg">
<g id="greece">
<path id="Vector" d="M4.67075 5.3052C4.28478 5.22342 4.23972 5.74644 4.18682 6.1025C3.97523 7.53527 2.60575 8.31725 1.78877 9.40929C1.13244 10.2816 -0.969783 11.5082 0.527044 12.4265C2.46273 13.619 1.76722 15.9206 4.04968 17.0127C5.07238 17.5016 6.14014 18.2223 7.42146 18.4557C5.54063 19.6227 4.0007 20.6397 6.7906 22.202C7.65265 22.6892 7.5684 23.3008 7.3666 24.185C7.17264 25.0215 7.73493 26.7797 9.18082 25.8972C10.6228 25.0164 10.4994 26.0182 10.9363 26.41C11.3281 26.7559 11.0107 27.4526 11.716 27.7218C12.1039 27.2209 12.4899 26.7252 12.87 26.2345C13.7242 26.5599 13.8515 27.6009 14.98 27.6809C15.3778 25.9585 14.357 24.5292 13.8006 23.0197C13.7908 23.0095 13.783 23.001 13.7732 22.9925C13.8006 22.9533 13.832 22.9175 13.8633 22.8835C13.8888 22.8545 13.9142 22.834 13.9436 22.8119C13.9632 22.7949 13.9867 22.7761 14.0063 22.7608C14.0416 22.7386 14.0808 22.7352 14.118 22.7267C14.1356 22.7267 14.1533 22.7165 14.1709 22.7165C14.2297 22.7267 14.2924 22.7506 14.359 22.817C15.1113 23.5172 16.0027 23.6007 16.614 22.8971C17.3683 22.0282 15.9675 22.1492 15.6893 21.7352C15.4542 21.3894 15.4228 20.9379 15.3033 20.5273C16.0458 20.4489 16.6904 19.8373 17.5446 20.3144C18.2715 20.7249 18.6653 21.5461 19.6978 21.6245C19.8095 20.7624 19.6253 19.759 20.0877 19.0945C21.2416 17.4267 20.8792 16.568 18.6927 16.2103C17.6622 16.0433 16.5474 15.5305 16.4024 14.7213C16.0694 12.7944 14.3786 11.6905 13.2462 10.2713C12.3586 9.15885 12.4762 8.31214 13.1423 7.42624C13.3833 7.46542 13.5988 7.53868 13.7947 7.62727C13.879 7.67157 13.9515 7.72779 14.0318 7.77208C14.1356 7.83171 14.2473 7.88793 14.3413 7.95948C14.3511 7.9663 14.3609 7.98163 14.3747 7.99015C15.3601 8.74316 15.9518 9.92549 17.5094 9.83009C17.5172 9.8369 17.529 9.84883 17.5368 9.85735C17.5407 9.87438 17.5427 9.89994 17.5466 9.91698C17.4898 9.99023 17.433 10.0669 17.3781 10.1385C17.4506 10.1742 17.5231 10.2032 17.5936 10.2373C17.5779 10.135 17.5603 10.0294 17.5466 9.92209C17.5721 9.89142 17.5936 9.86076 17.621 9.82668H17.6269C17.5819 9.83009 17.5486 9.81816 17.5054 9.82328C17.4349 9.73809 17.3546 9.65121 17.2821 9.56773C17.2703 9.55751 17.2645 9.54558 17.2527 9.53536C17.1704 9.43484 17.096 9.34114 17.049 9.2287C16.853 8.78064 17.3095 8.84708 17.5446 8.86923C18.3126 8.93738 18.2754 10.2339 19.3961 9.81135C18.1206 7.02418 18.9768 5.39719 22.0723 5.26431C24.2823 5.17061 26.6412 4.68847 28.7258 5.74814C29.9816 6.38361 30.8064 5.79925 31.1336 5.04624C31.5078 4.18249 31.7625 3.41414 32.5619 2.67646C33.375 1.92175 32.3503 1.2948 31.5568 0.921704C31.067 0.6866 30.1501 0.354388 30.1011 1.07674C29.8856 4.04109 26.7803 3.33407 25.7439 2.89283C22.1135 1.33399 18.6849 2.34766 15.125 2.56913C13.6321 2.66283 12.8915 3.99338 11.3418 3.72421C8.86735 3.30852 7.26081 5.85888 4.67075 5.3052Z" fill="#121111"/>
<path id="Vector_2" d="M28.1361 33.5006C25.1444 32.5823 21.7393 32.9793 18.6653 31.9622C17.815 31.6811 17.3115 32.2212 17.0862 32.7936C16.8785 33.3251 17.19 33.889 17.8855 33.9623C21.898 34.3712 25.7517 36.0186 29.9464 35.0782C30.7555 34.8942 31.2022 34.6455 31.1807 33.7068C30.1913 33.24 29.3057 33.8601 28.1361 33.5006Z" fill="#121111"/>
<path id="Vector_3" d="M32.4483 14.3244C32.1603 13.6259 31.7919 12.7519 30.6145 12.97C29.9052 13.1011 28.6592 13.1659 28.9374 14.0194C29.1999 14.8235 30.4499 15.0075 31.2728 15.1779C32.1054 15.1932 32.748 15.0399 32.4483 14.3244Z" fill="#121111"/>
<path id="Vector_4" d="M43.075 29.7253C43.0338 30.1086 43.2924 30.5175 43.7019 30.3982C44.9676 30.0234 45.8041 29.2602 46 27.6758C44.368 27.9927 43.2219 28.3351 43.075 29.7253Z" fill="#121111"/>
</g>
</svg>
