<svg width="39" height="45" viewBox="0 0 39 45" fill="none" xmlns="http://www.w3.org/2000/svg">
<g id="italy">
<g id="Group">
<g id="Group_2">
<path id="Vector" d="M38.064 29.147C37.247 28.269 35.568 26.716 33.516 26.169C32.299 25.845 31.674 25.398 31.485 25.181C31.997 24.849 32.272 24.192 32.139 23.606C32.006 23.032 31.516 22.667 30.823 22.63C30.643 22.62 30.452 22.619 30.249 22.616C29.113 22.6 27.702 22.581 26.297 21.272C25.161 20.215 24.833 19.015 24.536 17.955C24.395 17.437 24.263 16.949 24.049 16.522C23.562 15.543 22.78 15.192 21.883 14.787C21.478 14.603 21.019 14.397 20.534 14.106C20.109 13.852 19.871 13.562 19.826 13.241C19.743 12.678 20.238 12.083 20.391 11.914C21.119 11.111 20.271 10.045 19.59 9.187C19.42 8.973 19.256 8.768 19.128 8.58C19.467 8.23 21.212 7.678 22.637 7.678C22.867 7.678 23.072 7.696 23.221 7.729C23.662 7.826 24.037 7.688 24.263 7.364C24.893 6.447 24.034 3.999 23.755 3.271C23.416 2.38 22.246 2.36 21.115 2.34C20.768 2.333 20.416 2.329 20.087 2.297C19.638 2.254 19.529 1.984 19.43 1.197C19.387 0.853 19.35 0.556 19.186 0.327C18.983 0.039 18.583 0 18.218 0C17 0 14.471 0.557 13.438 0.826C12.616 1.041 11.947 1.688 11.237 2.374C10.55 3.037 9.841 3.723 8.919 4.126C7.929 4.559 6.24 4.885 4.749 5.174C3.079 5.498 2.032 5.712 1.559 6.016C-0.569 7.384 0.757999 11.467 1.391 12.79C1.729 13.498 2.217 13.937 2.608 14.29C3.119 14.751 3.189 14.862 3.106 15.084C2.971 15.445 3.087 15.697 3.169 15.813C3.335 16.052 3.625 16.173 4.032 16.173C4.925 16.173 6.587 15.542 7.16 14.553C7.74 13.551 8.461 13.542 10.095 14.252C11.69 14.944 12.037 16.103 12.562 17.858L12.616 18.038C13.027 19.407 14.252 20.494 15.549 21.646C16.174 22.202 16.822 22.776 17.421 23.414C19.2 25.312 23.213 27.662 25.086 28.641C26.476 29.366 27.686 30.182 29.53 33.523C30.067 34.49 30.143 35.359 29.762 36.105C29.087 37.417 27.13 38.203 25.492 38.398C23.957 38.582 23.261 38.281 22.528 37.958C22.097 37.768 21.652 37.57 21.048 37.475C20.038 37.314 19.162 37.975 18.894 39.016C18.661 39.92 18.999 40.773 19.754 41.186C20.143 41.4 20.755 41.775 21.457 42.207C23.267 43.319 25.52 44.704 26.56 44.94C26.74 44.981 26.916 45.002 27.084 45.002C27.668 45.002 28.155 44.755 28.457 44.305C28.81 43.784 28.853 43.069 28.578 42.394C28.234 41.569 28.313 41.12 28.97 40.106C29.131 39.853 29.227 39.853 29.273 39.853C29.369 39.853 29.504 39.894 29.65 39.938C30.018 40.045 30.578 40.16 31.086 39.983C31.839 39.715 32.425 38.786 32.988 37.884C33.352 37.308 33.727 36.712 34.063 36.444C34.464 36.123 34.649 35.584 34.58 34.923C34.461 33.784 33.619 32.452 32.746 32.015C32.502 31.897 32.494 31.776 32.489 31.723C32.459 31.39 32.882 30.721 33.739 30.087C34.564 29.479 35.945 30.789 36.718 32.003C36.968 32.395 37.257 32.592 37.576 32.592C37.776 32.592 38.154 32.507 38.4 31.938C38.691 31.258 38.743 29.875 38.064 29.147Z" fill="black"/>
<path id="Vector_2" d="M9.835 24.565C9.636 24.565 9.347 24.638 9.096 24.991L8.881 25.3C8.396 26.006 8.046 26.515 6.945 26.654C6.1 26.759 5.563 27.08 5.353 27.603C5.124 28.171 5.33 28.855 5.962 29.635C6.357 30.121 6.71 32.001 6.081 33.489C5.566 34.705 5.776 35.437 6.041 35.838C6.274 36.192 6.759 36.609 7.746 36.609C8.115 36.609 8.707 36.488 9.136 35.787C9.24 35.824 9.354 35.843 9.477 35.843C10.06 35.843 10.858 35.4 11.258 34.551C11.823 33.349 11.787 29.469 11.609 27.813C11.474 26.556 10.874 24.565 9.835 24.565Z" fill="black"/>
</g>
</g>
</g>
</svg>
