<svg width="22" height="22" viewBox="0 0 22 22" fill="none" xmlns="http://www.w3.org/2000/svg">
<g id="norway (1) 1" clip-path="url(#clip0)">
<g id="Group">
<path id="norway" d="M0.290997 17.449C0.582997 19.144 1.948 19.686 3.361 18.701C3.96 18.286 4.489 17.519 5.394 18.059C5.584 18.172 5.667 18.072 5.688 17.947C5.88 16.815 6.842 15.923 6.299 14.517C5.953 13.623 5.256 11.971 7.384 11.764C7.498 11.751 7.703 11.581 7.692 11.514C7.44 9.984 8.85 9.137 9.185 7.961C9.838 5.665 12.366 6.4 13.397 4.89C13.613 4.574 13.859 5.034 14.077 5.179C15.231 5.94 16.592 5.617 17.216 4.441C17.647 3.631 19.355 3.36 19.538 4.127C19.845 5.416 20.287 4.487 20.691 4.394C20.879 4.353 21.062 4.286 21.268 4.221C21.256 3.596 20.536 3.926 20.58 3.584C20.709 2.611 20.738 2.652 19.802 2.292C18.73 1.879 17.612 2.191 16.544 2.165C15.634 2.144 14.414 2.116 13.638 3.143C13.387 3.476 12.701 3.625 12.222 3.611C11.411 3.583 10.141 4.113 9.834 4.79C9.634 5.23 9.548 5.302 9.261 4.964C8.625 4.219 8.454 5.346 8 5.216C8.019 5.552 7.444 5.853 7.863 6.186C8.453 6.655 8.09 7.135 7.786 7.367C6.925 8.02 6.628 9.045 5.974 9.812C5.159 10.77 4.358 11.694 3.157 12.314C1.336 13.252 -0.698003 14.271 0.234997 17.017C0.279997 17.149 0.265997 17.305 0.290997 17.449Z" fill="black"/>
</g>
</g>
<defs>
<clipPath id="clip0">
<rect width="21.268" height="21.268" fill="white"/>
</clipPath>
</defs>
</svg>
