<svg width="73" height="70" viewBox="0 0 293 347" fill="none" xmlns="http://www.w3.org/2000/svg">
<g id="phone-box 1" clip-path="url(#clip0)">
<g id="Group">
<path id="Vector" d="M183.125 0H109.875C86.2765 0 67.1456 22.656 67.1456 50.6044V65.0625C67.1456 69.055 69.8788 72.2919 73.25 72.2919H219.75C223.121 72.2919 225.854 69.055 225.854 65.0625V50.6044C225.854 22.656 206.724 0 183.125 0Z" fill="#F44336"/>
<path id="Vector_2" d="M73.25 86.75H219.75C223.121 86.75 225.854 89.9869 225.854 93.9794V310.854C225.854 314.847 223.121 318.084 219.75 318.084H73.25C69.8788 318.084 67.1456 314.847 67.1456 310.854V93.9794C67.1456 89.9869 69.8788 86.75 73.25 86.75Z" fill="#F44336"/>
</g>
<path id="Vector_3" d="M195.309 137.282H98.155V305.432H195.309V137.282Z" fill="#FAFAFA"/>
<path id="Vector_4" d="M219.75 57.8331H73.25C63.1363 57.8331 54.9375 67.543 54.9375 79.5206C54.9375 91.4982 63.1363 101.208 73.25 101.208H219.75C229.864 101.208 238.062 91.4982 238.062 79.5206C238.062 67.543 229.864 57.8331 219.75 57.8331Z" fill="#D32F2F"/>
<g id="Group_2">
<path id="Vector_5" d="M183.125 43.375H109.875C106.504 43.375 103.771 40.1381 103.771 36.1456C103.771 32.1531 106.504 28.9169 109.875 28.9169H183.125C186.496 28.9169 189.229 32.1537 189.229 36.1463C189.229 40.1388 186.496 43.375 183.125 43.375Z" fill="#455A64"/>
<path id="Vector_6" d="M195.333 318.083H97.6669C94.2956 318.083 91.5625 314.846 91.5625 310.854V137.354C91.5625 133.361 94.2956 130.124 97.6669 130.124H195.334C198.705 130.124 201.438 133.361 201.438 137.354V310.854C201.438 314.847 198.704 318.083 195.333 318.083ZM103.771 303.625H189.229V144.583H103.771V303.625Z" fill="#455A64"/>
<path id="Vector_7" d="M146.5 318.083C143.129 318.083 140.396 314.846 140.396 310.854V137.354C140.396 133.361 143.129 130.124 146.5 130.124C149.871 130.124 152.604 133.361 152.604 137.354V310.854C152.604 314.847 149.871 318.083 146.5 318.083Z" fill="#455A64"/>
<path id="Vector_8" d="M195.333 202.417H97.6669C94.2956 202.417 91.5625 199.18 91.5625 195.188C91.5625 191.195 94.2956 187.958 97.6669 187.958H195.334C198.705 187.958 201.438 191.195 201.438 195.188C201.438 199.18 198.704 202.417 195.333 202.417Z" fill="#455A64"/>
<path id="Vector_9" d="M195.333 260.25H97.6669C94.2956 260.25 91.5625 257.013 91.5625 253.021C91.5625 249.028 94.2956 245.791 97.6669 245.791H195.334C198.705 245.791 201.438 249.028 201.438 253.021C201.438 257.013 198.704 260.25 195.333 260.25Z" fill="#455A64"/>
<path id="Vector_10" d="M61.0419 303.625H231.959C235.33 303.625 238.063 306.862 238.063 310.854V339.771C238.063 343.764 235.33 347.001 231.959 347.001H61.0419C57.6706 347 54.9375 343.763 54.9375 339.771V310.854C54.9375 306.862 57.6706 303.625 61.0419 303.625Z" fill="#455A64"/>
</g>
<path id="Vector_11" d="M231.958 347H61.0419C57.6706 347 54.9375 343.763 54.9375 339.771V310.854C54.9375 306.861 57.6706 303.624 61.0419 303.624H231.959C235.33 303.624 238.063 306.861 238.063 310.854V339.771C238.063 343.763 235.329 347 231.958 347ZM67.1456 332.542H225.854V318.084H67.1456V332.542Z" fill="black"/>
<path id="Vector_12" d="M219.75 318.083H73.25C69.8788 318.083 67.1456 314.846 67.1456 310.854V93.9787C67.1456 89.9861 69.8788 86.7493 73.25 86.7493H219.75C223.121 86.7493 225.854 89.9861 225.854 93.9787V310.854C225.854 314.847 223.121 318.083 219.75 318.083ZM79.3543 303.625H213.646V101.208H79.3543V303.625Z" fill="black"/>
<path id="Vector_13" d="M219.75 101.208H73.25C63.1363 101.208 54.9375 91.4982 54.9375 79.5206C54.9375 67.543 63.1363 57.8331 73.25 57.8331H219.75C229.864 57.8331 238.062 67.543 238.062 79.5206C238.062 91.4982 229.864 101.208 219.75 101.208ZM73.25 72.2919C69.8788 72.2919 67.1456 75.5288 67.1456 79.5213C67.1456 83.5138 69.8788 86.75 73.25 86.75H219.75C223.121 86.75 225.854 83.5132 225.854 79.5206C225.854 75.5281 223.121 72.2912 219.75 72.2912H73.25V72.2919Z" fill="black"/>
<path id="Vector_14" d="M219.75 72.2919C216.379 72.2919 213.646 69.055 213.646 65.0625V50.6044C213.646 30.6417 199.981 14.4588 183.125 14.4588H109.875C93.0189 14.4588 79.3543 30.6417 79.3543 50.6044V65.0625C79.3543 69.055 76.6212 72.2919 73.25 72.2919C69.8788 72.2919 67.1456 69.055 67.1456 65.0625V50.6044C67.1456 22.656 86.2765 0 109.875 0H183.125C206.724 0 225.854 22.656 225.854 50.6044V65.0625C225.854 69.055 223.121 72.2919 219.75 72.2919Z" fill="black"/>
<path id="Vector_15" d="M183.125 43.375H109.875C106.504 43.375 103.771 40.1381 103.771 36.1456C103.771 32.1531 106.504 28.9169 109.875 28.9169H183.125C186.496 28.9169 189.229 32.1537 189.229 36.1463C189.229 40.1388 186.496 43.375 183.125 43.375Z" fill="black"/>
<path id="Vector_16" d="M195.333 318.083H97.6669C94.2956 318.083 91.5625 314.846 91.5625 310.854V137.354C91.5625 133.361 94.2956 130.124 97.6669 130.124H195.334C198.705 130.124 201.438 133.361 201.438 137.354V310.854C201.438 314.847 198.704 318.083 195.333 318.083ZM103.771 303.625H189.229V144.583H103.771V303.625Z" fill="black"/>
<path id="Vector_17" d="M146.5 318.083C143.129 318.083 140.396 314.846 140.396 310.854V137.354C140.396 133.361 143.129 130.124 146.5 130.124C149.871 130.124 152.604 133.361 152.604 137.354V310.854C152.604 314.847 149.871 318.083 146.5 318.083Z" fill="black"/>
<path id="Vector_18" d="M195.333 202.417H97.6669C94.2956 202.417 91.5625 199.18 91.5625 195.188C91.5625 191.195 94.2956 187.958 97.6669 187.958H195.334C198.705 187.958 201.438 191.195 201.438 195.188C201.438 199.18 198.704 202.417 195.333 202.417Z" fill="black"/>
<path id="Vector_19" d="M195.333 260.25H97.6669C94.2956 260.25 91.5625 257.013 91.5625 253.021C91.5625 249.028 94.2956 245.791 97.6669 245.791H195.334C198.705 245.791 201.438 249.028 201.438 253.021C201.438 257.013 198.704 260.25 195.333 260.25Z" fill="black"/>
</g>
<defs>
<clipPath id="clip0">
<rect width="293" height="347" fill="white"/>
</clipPath>
</defs>
</svg>
