<svg width="60" height="60" viewBox="0 0 13 22" fill="none" xmlns="http://www.w3.org/2000/svg">
<g id="Portugal">
<path id="Vector" d="M2.61899 15.345C3.25899 15.582 3.17399 16.094 3.17199 16.646C3.16699 18.158 3.35499 19.673 2.54199 21.198C4.17699 20.857 4.35199 20.859 5.82099 21.179C7.33999 21.507 8.12499 20.825 8.00699 19.325C7.93599 18.41 8.41299 17.676 9.11099 17.219C9.69399 16.843 10.049 16.766 9.26399 16.18C8.45499 15.572 8.22199 14.788 9.17199 13.98C9.56199 13.651 10.037 13.089 9.37199 12.642C8.55599 12.094 8.57699 11.131 7.87499 10.358C8.84899 10.449 9.93899 10.48 9.89099 9.52703C9.82499 8.25203 10.763 7.08903 10.287 5.89703C9.86299 4.83803 10.431 4.40403 11.053 3.83603C11.718 3.23203 13.342 3.02303 11.426 1.58803C10.544 0.928027 9.61299 0.475027 9.09099 0.845027C8.01299 1.60403 6.94199 0.645027 5.97599 1.19903C5.83099 1.28003 5.55899 1.20003 5.59999 0.927027C5.75999 -0.172973 5.17699 -0.124973 4.47299 0.212027C3.73899 0.562027 2.69099 0.620027 3.11399 1.98403C4.16399 5.36503 3.42799 8.49003 1.49999 11.374C0.42899 12.98 0.90399 14.708 2.61899 15.345Z" fill="black"/>
</g>
</svg>
