<svg width="70" height="62" viewBox="0 0 216 208" fill="none" xmlns="http://www.w3.org/2000/svg">
<g id="sangria 1">
<path id="Vector" d="M174.15 150.324C173.214 143.137 171.619 135.301 169.285 126.418C181.64 119.724 193.33 106.381 196.628 95.1308C201.153 79.6945 201.758 64.5036 198.285 53.452C195.186 43.5943 190.078 40.6502 186.338 39.9161C185.626 39.7772 184.887 39.6915 184.14 39.6626C183.938 39.6545 183.735 39.6508 183.531 39.6508C174.467 39.6508 164.06 47.5654 155.69 60.8221C154.782 62.2595 153.387 64.3386 151.536 67.0158C150.039 59.9499 149.212 53.3748 149.075 47.4439C150.187 45.966 151.344 44.5551 152.518 43.2474C161.008 33.7826 171.073 28.7804 181.626 28.7804C182.063 28.7804 182.501 28.7885 182.939 28.8056C184.788 28.8779 186.675 29.1009 188.548 29.4686C198.009 31.3251 205.23 38.7457 208.881 50.3628C212.951 63.3108 212.369 80.6837 207.284 98.0273C203.31 111.577 194.783 131.404 176.727 148.911C176.003 149.613 175.123 150.094 174.15 150.324Z" fill="#D6E5E2"/>
<path id="Vector_2" d="M161.614 81.3548C146.66 41.6748 155.07 25.508 159.211 20.503C159.832 19.7523 159.27 18.6453 158.273 18.6453H131.368C120.7 18.6453 110.219 15.9559 100.966 10.8445C91.7131 5.73302 81.2316 3.04364 70.5641 3.04364H46.7973C46.1738 3.04364 45.8831 3.78748 46.3518 4.18317L63.4749 18.6453C63.4749 18.6453 81.8265 31.2679 62.9505 81.3548C46.1882 125.833 32.5717 160.596 54.8476 195.615C58.5542 201.442 65.1797 204.956 72.2752 204.956H152.288C159.384 204.956 166.01 201.442 169.716 195.615C191.992 160.596 178.376 125.833 161.614 81.3548Z" fill="#E5F9F6"/>
<path id="Vector_3" d="M161.614 81.3548C146.66 41.6748 155.07 25.508 159.211 20.503C159.832 19.7523 159.27 18.6453 158.273 18.6453H136.01C136.01 18.6453 117.659 31.2679 136.535 81.3548C153.384 126.063 167.055 160.956 144.289 196.159C140.757 201.621 134.557 204.956 127.874 204.956H152.288C159.384 204.956 166.01 201.442 169.716 195.615C191.992 160.596 178.376 125.833 161.614 81.3548Z" fill="#D6E5E2"/>
<path id="Vector_4" d="M54.848 195.615C58.5546 201.442 65.1802 204.956 72.2757 204.956H152.288C159.384 204.956 166.01 201.442 169.716 195.615C191.134 161.945 179.37 128.509 163.532 86.4484H61.0319C45.1943 128.509 33.4303 161.945 54.848 195.615Z" fill="#FC502A"/>
<path id="Vector_5" d="M171.036 193.462C171.248 193.106 171.461 192.75 171.665 192.394C171.788 192.179 171.906 191.964 172.026 191.749C172.207 191.428 172.389 191.106 172.564 190.785C172.69 190.553 172.811 190.321 172.934 190.089C173.096 189.784 173.259 189.479 173.416 189.174C173.539 188.934 173.657 188.693 173.777 188.453C173.926 188.156 174.075 187.859 174.219 187.563C174.338 187.317 174.453 187.071 174.568 186.825C174.705 186.534 174.843 186.242 174.975 185.952C175.089 185.701 175.198 185.451 175.309 185.201C175.436 184.914 175.563 184.626 175.686 184.339C175.794 184.086 175.897 183.832 176.002 183.578C176.12 183.294 176.237 183.01 176.35 182.726C176.452 182.47 176.551 182.213 176.649 181.957C176.758 181.675 176.866 181.393 176.97 181.112C177.065 180.854 177.158 180.596 177.25 180.337C177.35 180.056 177.45 179.775 177.546 179.493C177.634 179.234 177.721 178.975 177.806 178.715C177.898 178.436 177.989 178.156 178.077 177.876C178.16 177.615 178.24 177.353 178.319 177.092C178.403 176.813 178.486 176.534 178.566 176.256C178.642 175.993 178.716 175.731 178.789 175.468C178.865 175.19 178.94 174.912 179.013 174.633C179.083 174.37 179.151 174.106 179.216 173.842C179.286 173.564 179.353 173.286 179.419 173.008C179.481 172.744 179.543 172.48 179.602 172.215C179.665 171.937 179.725 171.658 179.784 171.38C179.84 171.115 179.896 170.85 179.948 170.584C180.004 170.306 180.057 170.028 180.109 169.75C180.158 169.483 180.208 169.217 180.255 168.95C180.303 168.673 180.349 168.394 180.394 168.116C180.438 167.849 180.482 167.581 180.522 167.314C180.564 167.036 180.603 166.759 180.641 166.481C180.679 166.212 180.717 165.943 180.751 165.673C180.787 165.396 180.818 165.118 180.851 164.84C180.882 164.571 180.914 164.301 180.943 164.031C180.972 163.752 180.997 163.474 181.023 163.196C181.049 162.925 181.075 162.654 181.097 162.383C181.121 162.105 181.139 161.826 181.159 161.548C181.178 161.276 181.2 161.005 181.216 160.733C181.233 160.453 181.246 160.173 181.259 159.892C181.273 159.621 181.289 159.35 181.299 159.078C181.31 158.797 181.316 158.516 181.324 158.235C181.332 157.963 181.342 157.691 181.347 157.419C181.352 157.135 181.353 156.851 181.355 156.566C181.357 156.296 181.362 156.026 181.362 155.755C181.362 155.463 181.356 155.17 181.352 154.877C181.346 154.346 181.335 153.814 181.318 153.281C181.31 153.002 181.303 152.724 181.292 152.445C181.281 152.16 181.265 151.874 181.25 151.589C181.237 151.315 181.225 151.041 181.209 150.766C181.192 150.477 181.17 150.186 181.151 149.896C181.132 149.625 181.116 149.355 181.095 149.083C181.072 148.79 181.046 148.497 181.02 148.204C180.997 147.934 180.976 147.664 180.95 147.394C180.922 147.099 180.891 146.805 180.86 146.51C180.833 146.239 180.806 145.969 180.776 145.698C180.743 145.404 180.707 145.108 180.671 144.814C180.639 144.541 180.607 144.269 180.572 143.996C180.535 143.7 180.494 143.403 180.453 143.107C180.416 142.834 180.38 142.562 180.341 142.289C180.298 141.991 180.252 141.693 180.207 141.395C180.166 141.122 180.125 140.848 180.081 140.573C180.034 140.274 179.984 139.975 179.934 139.676C179.889 139.402 179.843 139.128 179.796 138.853C179.743 138.552 179.689 138.251 179.635 137.95C179.585 137.675 179.535 137.4 179.483 137.125C179.426 136.823 179.368 136.52 179.309 136.217C179.256 135.941 179.201 135.665 179.145 135.389C179.084 135.085 179.022 134.781 178.958 134.477C178.901 134.201 178.843 133.925 178.783 133.649C178.718 133.341 178.651 133.034 178.582 132.726C178.522 132.451 178.46 132.175 178.397 131.9C178.327 131.592 178.257 131.283 178.184 130.975C178.119 130.696 178.054 130.418 177.987 130.139C177.913 129.83 177.838 129.52 177.763 129.209C177.695 128.933 177.626 128.656 177.556 128.379C177.478 128.065 177.398 127.751 177.318 127.436C177.247 127.159 177.175 126.882 177.102 126.605C177.02 126.289 176.937 125.974 176.853 125.657C176.779 125.381 176.703 125.103 176.628 124.826C176.542 124.506 176.455 124.187 176.366 123.867C176.289 123.591 176.211 123.313 176.133 123.036C176.043 122.715 175.952 122.394 175.86 122.072C175.781 121.796 175.7 121.518 175.619 121.242C175.525 120.915 175.43 120.589 175.333 120.262C175.253 119.99 175.171 119.716 175.088 119.443C174.989 119.112 174.89 118.781 174.789 118.448C174.706 118.178 174.622 117.906 174.539 117.635C174.435 117.298 174.332 116.961 174.226 116.622C174.144 116.36 174.06 116.096 173.977 115.833C173.867 115.484 173.757 115.136 173.645 114.786C173.568 114.545 173.489 114.302 173.411 114.06C173.291 113.687 173.171 113.313 173.048 112.938C172.984 112.743 172.919 112.547 172.854 112.352C172.167 110.262 171.449 108.153 170.706 106.022C170.65 105.86 170.594 105.699 170.537 105.536C170.389 105.111 170.238 104.685 170.087 104.259C170.014 104.052 169.942 103.846 169.869 103.64C169.722 103.226 169.574 102.811 169.425 102.396C169.347 102.176 169.269 101.957 169.19 101.738C169.042 101.326 168.893 100.913 168.744 100.5C168.662 100.274 168.581 100.048 168.499 99.8221C168.349 99.411 168.199 98.9983 168.048 98.5851C167.965 98.356 167.882 98.1269 167.797 97.8973C167.646 97.4834 167.493 97.0682 167.341 96.6526C167.256 96.4218 167.171 96.1919 167.086 95.9607C166.93 95.537 166.773 95.1117 166.615 94.6863C166.533 94.4653 166.452 94.2447 166.369 94.0233C166.204 93.5769 166.037 93.1292 165.87 92.6811C165.797 92.4853 165.725 92.2899 165.651 92.094C165.473 91.6159 165.294 91.1365 165.114 90.6563C165.052 90.4918 164.991 90.3277 164.929 90.1627C164.73 89.6322 164.531 89.1 164.33 88.5666C164.295 88.4715 164.259 88.3764 164.223 88.2814C163.994 87.6724 163.765 87.0618 163.534 86.4488H138.455C154.378 128.736 166.183 162.305 144.29 196.159C140.757 201.622 134.558 204.957 127.875 204.957H152.289C159.385 204.957 166.011 201.443 169.717 195.616C170.058 195.079 170.391 194.543 170.716 194.006C170.825 193.824 170.928 193.643 171.036 193.462Z" fill="#E52D15"/>
<path id="Vector_6" d="M72.3452 116.222H14.0805C11.9007 116.222 10.0115 117.689 9.55759 119.742C7.06937 130.994 5.52025 141.604 4.69295 151.516C3.29696 168.239 7.59882 184.945 16.7944 199.195C19.1063 202.777 23.1761 204.956 27.5565 204.956H58.8689C63.2492 204.956 67.319 202.777 69.6309 199.195C78.8265 184.945 83.1284 168.239 81.7324 151.516C80.9051 141.604 79.356 130.994 76.8677 119.742C76.4142 117.689 74.5251 116.222 72.3452 116.222Z" fill="#E5F9F6"/>
<path id="Vector_7" d="M81.7329 151.516C80.9056 141.604 79.3564 130.994 76.8682 119.742C76.4143 117.689 74.5251 116.222 72.3453 116.222H48.9506C51.9143 128.787 53.7064 140.577 54.6194 151.516C56.0154 168.239 51.7135 184.945 42.5179 199.195C40.206 202.778 36.1362 204.956 31.7559 204.956H58.8689C63.2492 204.956 67.3191 202.778 69.6309 199.195C78.8266 184.945 83.1284 168.239 81.7329 151.516Z" fill="#D6E5E2"/>
<path id="Vector_8" d="M4.69295 151.516C3.29696 168.239 7.59882 184.945 16.7944 199.195C19.1063 202.778 23.1761 204.956 27.5565 204.956H58.8689C63.2492 204.956 67.319 202.778 69.6309 199.195C78.8265 184.945 83.1284 168.239 81.7324 151.516C81.6396 150.403 81.5345 149.279 81.4231 148.148H5.0026C4.89123 149.279 4.78576 150.403 4.69295 151.516Z" fill="#FC502A"/>
<path id="Vector_9" d="M81.7328 151.516C81.64 150.403 81.5349 149.279 81.4236 148.148H54.3109C54.4223 149.279 54.5269 150.403 54.6197 151.516C56.0157 168.239 51.7139 184.945 42.5183 199.195C40.2064 202.778 36.1366 204.956 31.7562 204.956H58.8693C63.2496 204.956 67.3194 202.778 69.6313 199.195C78.8265 184.945 83.1284 168.239 81.7328 151.516Z" fill="#E52D15"/>
<path id="Vector_10" d="M150.068 123.35C150.812 122.754 150.895 121.67 150.231 120.993C140.209 110.783 123.536 109.707 112.166 118.82C100.797 127.932 98.8689 143.916 107.476 155.259C108.047 156.012 109.169 156.13 109.913 155.534L150.068 123.35Z" fill="#FDC74F"/>
<path id="Vector_11" d="M118.095 125.82C110.248 132.11 109.179 143.332 115.705 150.891L144.131 128.108C137.597 120.556 125.942 119.531 118.095 125.82Z" fill="#FFFFBB"/>
<g id="Group">
<path id="Vector_12" d="M93.5972 111.317L80.6279 100.971C80.1195 100.566 80.0487 99.84 80.4701 99.3504L91.2136 86.8615C91.6346 86.372 92.3885 86.3037 92.8969 86.7096L105.866 97.0551C106.375 97.4606 106.445 98.1865 106.024 98.6761L95.2805 111.165C94.8594 111.655 94.1055 111.722 93.5972 111.317Z" fill="#FF7A64"/>
<path id="Vector_13" d="M108.243 193.172L95.2733 182.827C94.7649 182.421 94.6941 181.695 95.1155 181.206L105.859 168.717C106.28 168.227 107.034 168.159 107.542 168.565L120.512 178.91C121.02 179.316 121.091 180.042 120.67 180.531L109.926 193.02C109.504 193.51 108.751 193.578 108.243 193.172Z" fill="#FF7A64"/>
<path id="Vector_14" d="M149.784 164.834L146.287 148.97C146.15 148.348 146.563 147.737 147.208 147.605L163.682 144.238C164.328 144.106 164.962 144.503 165.1 145.125L168.596 160.989C168.733 161.611 168.321 162.222 167.675 162.354L151.201 165.721C150.556 165.853 149.921 165.456 149.784 164.834Z" fill="#FF7A64"/>
</g>
<path id="Vector_15" d="M167.675 162.354C168.321 162.222 168.734 161.611 168.597 160.989L165.1 145.125C164.963 144.503 164.329 144.107 163.683 144.238L155.714 145.867C156.418 152.288 156.495 158.577 155.779 164.786L167.675 162.354Z" fill="#FC502A"/>
<path id="Vector_16" d="M125.242 129.05C124.125 127.758 122.132 127.582 120.791 128.658C119.449 129.733 119.267 131.652 120.383 132.945L121.306 134.013C121.932 134.736 122.831 135.109 123.738 135.109C124.451 135.109 125.167 134.878 125.758 134.405C127.1 133.329 127.282 131.41 126.166 130.118L125.242 129.05Z" fill="black"/>
<path id="Vector_17" d="M127.894 128.256L127.762 129.64C127.603 131.314 128.883 132.795 130.621 132.949C130.719 132.957 130.817 132.961 130.914 132.961C132.529 132.961 133.907 131.775 134.058 130.195L134.189 128.811C134.349 127.137 133.069 125.656 131.33 125.502C129.594 125.344 128.053 126.582 127.894 128.256Z" fill="black"/>
<path id="Vector_18" d="M120.528 135.438L119.091 135.311C117.351 135.157 115.814 136.392 115.656 138.065C115.497 139.739 116.777 141.221 118.516 141.373L119.953 141.5C120.05 141.508 120.148 141.513 120.244 141.513C121.86 141.513 123.238 140.325 123.388 138.746C123.547 137.072 122.267 135.591 120.528 135.438Z" fill="black"/>
<path id="Vector_19" d="M84.8833 151.272C84.7892 150.145 84.6825 149.006 84.5699 147.86C84.569 147.85 84.5665 147.84 84.5652 147.83C83.6308 138.375 82.0871 128.731 79.9592 119.108C79.1994 115.672 75.9974 113.178 72.3448 113.178H14.0804C10.4283 113.178 7.22582 115.672 6.46602 119.108C4.33766 128.732 2.79444 138.377 1.85999 147.833C1.85914 147.842 1.85703 147.851 1.85619 147.86C1.74313 149.005 1.63681 150.144 1.54274 151.272C1.18456 155.562 1.19511 159.879 1.5613 164.172C2.65944 177.051 6.95793 189.717 14.1108 200.801C16.4742 204.464 20.2356 206.927 24.5193 207.722C25.5078 207.905 26.5241 208 27.5577 208H58.8701C62.3147 208 65.5699 206.949 68.237 205.06C69.8371 203.926 71.2259 202.491 72.3169 200.801C80.6616 187.87 85.1217 172.786 85.147 157.721C85.1495 155.569 85.0626 153.417 84.8833 151.272ZM12.649 120.376C12.7912 119.733 13.3932 119.266 14.0804 119.266H72.3456C73.0328 119.266 73.6344 119.733 73.777 120.376C75.6071 128.653 76.99 136.942 77.9186 145.104H8.50747C9.43602 136.942 10.8189 128.653 12.649 120.376ZM66.9464 197.588C65.199 200.296 62.1797 201.912 58.8692 201.912H27.5564C24.2459 201.912 21.2266 200.296 19.4792 197.588C10.651 183.908 6.51875 167.632 7.84386 151.76C7.85947 151.571 7.88014 151.381 7.89617 151.192H78.5294C78.5459 151.381 78.5662 151.571 78.5818 151.76C79.9069 167.632 75.7746 183.908 66.9464 197.588Z" fill="black"/>
<path id="Vector_20" d="M110.145 116.48C97.5889 126.543 95.296 144.365 104.925 157.055C105.706 158.084 106.911 158.765 108.229 158.921C108.425 158.945 108.622 158.956 108.818 158.956C109.949 158.956 111.06 158.574 111.935 157.872L117.726 153.231C117.726 153.231 117.727 153.231 117.727 153.231L120.455 151.044L152.09 125.69C152.091 125.689 152.091 125.689 152.091 125.689C153.119 124.865 153.754 123.654 153.834 122.368C153.913 121.091 153.437 119.828 152.528 118.902C141.318 107.48 122.7 106.416 110.145 116.48ZM132.341 133.597L116.366 146.401C113.054 140.365 114.456 132.697 120.117 128.16C125.778 123.622 133.862 123.687 139.426 127.919L132.341 133.597ZM144.358 123.966C136.496 117.187 124.42 116.791 116.073 123.481C107.726 130.171 105.938 141.678 111.434 150.354L109.132 152.199C102.527 142.207 104.601 128.843 114.188 121.159C118.783 117.477 124.396 115.665 129.988 115.665C136.064 115.665 142.115 117.804 146.804 122.006L144.358 123.966Z" fill="black"/>
<path id="Vector_21" d="M211.907 49.4808C207.904 36.7425 199.833 28.5756 189.18 26.4859C187.142 26.0857 185.085 25.8428 183.067 25.764C182.592 25.7457 182.107 25.7363 181.626 25.7363C172.818 25.7363 164.346 28.8994 156.767 34.955C157.818 28.002 160.224 24.1642 161.684 22.399C162.732 21.1307 162.929 19.4362 162.198 17.9753C161.465 16.5112 159.962 15.6016 158.273 15.6016H131.368C121.268 15.6016 111.3 13.0439 102.539 8.20422C92.8222 2.83684 81.7657 0 70.5641 0H46.7974C45.1845 0 43.7755 0.938844 43.2072 2.39241C42.6389 3.84597 43.0549 5.447 44.2678 6.47197L61.3909 20.9341C61.4697 21.0007 61.5524 21.0637 61.6377 21.1226C61.6739 21.1469 65.332 23.9618 67.2094 31.8939C70.7223 46.7383 65.2164 66.4198 59.9793 80.3168L59.2874 82.1527C56.7536 88.8733 54.3603 95.2213 52.1248 101.478C51.5569 103.068 52.4344 104.8 54.0852 105.347C55.7348 105.894 57.5345 105.049 58.1023 103.459C59.7312 98.9003 61.4503 94.2772 63.2479 89.4924H84.8458L78.0351 97.4098C77.293 98.2727 76.9441 99.3623 77.053 100.478C77.1618 101.593 77.7153 102.602 78.6114 103.316L91.5798 113.661C92.3687 114.29 93.3403 114.626 94.3519 114.626C94.4895 114.626 94.6279 114.62 94.7662 114.607C95.9251 114.502 96.9718 113.97 97.7143 113.106L108.457 100.618C109.2 99.7551 109.549 98.6651 109.44 97.5496C109.331 96.434 108.778 95.4257 107.882 94.7115L101.339 89.492H161.316C165.784 101.382 169.819 112.406 172.826 122.906C172.833 122.931 172.835 122.957 172.842 122.982C175.201 131.228 176.737 138.503 177.538 145.225C177.539 145.231 177.54 145.236 177.541 145.242C179.737 163.77 176.375 179.32 167.021 194.025C163.927 198.89 158.281 201.913 152.288 201.913H78.8476C77.1019 201.913 75.6869 203.275 75.6869 204.956C75.6869 206.637 77.1023 208 78.8476 208H152.289C160.466 208 168.176 203.864 172.412 197.205C182.318 181.633 186.023 165.243 183.971 145.885C199.239 129.142 206.727 111.128 210.327 98.8544C215.571 80.9668 216.147 62.9708 211.907 49.4808ZM95.6138 108.973L95.6121 108.971C95.6129 108.972 95.6138 108.973 95.6146 108.973C95.6142 108.973 95.6138 108.973 95.6138 108.973ZM102.336 98.1918L94.1001 107.766L84.1582 99.8347L92.394 90.261L102.336 98.1918ZM92.1654 83.4043C92.151 83.4043 92.1367 83.4043 92.1223 83.4043H65.5413L65.9226 82.3932C84.6539 32.6893 67.5481 17.8551 65.4839 16.2927L53.401 6.08766H70.5645C80.6638 6.08766 90.6327 8.64541 99.3934 13.4847C109.11 18.852 120.166 21.6889 131.368 21.6889H154.602C152.596 25.1323 150.68 30.2664 150.1 37.6976C149.976 39.2811 149.922 40.9171 149.928 42.5998C149.928 42.6132 149.927 42.6266 149.927 42.6404C149.928 42.9504 149.941 43.2693 149.947 43.5829C149.981 45.3903 150.086 47.2513 150.267 49.168C150.277 49.2741 150.284 49.3781 150.294 49.4845C150.358 50.1292 150.434 50.7833 150.514 51.4398C150.534 51.61 150.552 51.7782 150.574 51.9492C150.653 52.5732 150.744 53.2049 150.838 53.8399C150.87 54.0577 150.901 54.2738 150.935 54.4928C151.028 55.0956 151.13 55.7042 151.237 56.3164C151.283 56.5845 151.33 56.8527 151.38 57.1224C151.485 57.7009 151.596 58.2831 151.713 58.8697C151.777 59.189 151.843 59.5099 151.91 59.8317C152.026 60.3887 152.145 60.9472 152.272 61.5115C152.298 61.6314 152.321 61.7484 152.348 61.8686C152.354 61.8926 152.364 61.9145 152.37 61.9385C153.82 68.3097 155.906 75.1327 158.642 82.3928L159.023 83.4039H92.1654V83.4043ZM177.599 116.837C174.246 105.946 169.947 94.5388 165.294 82.199L164.584 80.3164C162.101 73.7275 160.178 67.5403 158.802 61.765C166.408 49.9846 175.838 42.6944 183.531 42.6944C183.692 42.6944 183.852 42.6977 184.013 42.7038C184.59 42.7261 185.161 42.7919 185.707 42.8984C189.861 43.7137 193.164 47.6682 195.259 54.3331C198.562 64.8432 197.952 79.4117 193.586 94.3036C191.438 101.632 185.348 110.128 177.599 116.837ZM204.243 97.2006C201.117 107.86 194.91 123.075 182.806 137.744C181.961 132.995 180.837 128.194 179.489 123.302C189.178 115.611 197.002 105.06 199.671 95.9583C204.356 79.9776 204.953 64.1635 201.311 52.5704C197.761 41.2762 191.553 37.8333 186.967 36.9334C186.089 36.762 185.18 36.6567 184.269 36.6214C175.408 36.2793 165.541 42.4369 157.139 53.2976C156.887 51.6384 156.689 50.0199 156.544 48.4457C156.541 48.4169 156.539 48.3876 156.536 48.3588C156.47 47.6357 156.417 46.9235 156.374 46.2195C156.366 46.0956 156.36 45.9725 156.353 45.8494C156.319 45.2445 156.294 44.6481 156.277 44.0578C156.275 43.9644 156.273 43.8718 156.271 43.7787C164.166 35.6111 173.361 31.4819 182.811 31.8472C184.491 31.9126 186.209 32.1157 187.917 32.4512C196.187 34.0738 202.557 40.7485 205.856 51.2452C209.756 63.6512 209.168 80.4017 204.243 97.2006Z" fill="black"/>
<path id="Vector_22" d="M93.2571 185.171L106.226 195.516C107.037 196.163 108.021 196.479 109.001 196.479C110.254 196.479 111.499 195.962 112.36 194.962L123.103 182.473C124.635 180.692 124.377 178.042 122.527 176.567L109.558 166.221C108.661 165.507 107.53 165.172 106.372 165.275C105.213 165.38 104.166 165.913 103.424 166.776L92.6813 179.264C91.149 181.045 91.4072 183.694 93.2571 185.171ZM107.039 172.116L116.981 180.047L108.746 189.62L98.8039 181.69L107.039 172.116Z" fill="black"/>
<path id="Vector_23" d="M143.804 146.446C143.17 147.385 142.953 148.506 143.195 149.602L146.691 165.466V165.466C147.126 167.436 148.939 168.79 150.952 168.79C151.25 168.79 151.554 168.76 151.857 168.699L168.331 165.332C170.681 164.851 172.186 162.62 171.688 160.357L168.192 144.494C167.95 143.398 167.279 142.457 166.304 141.847C165.328 141.237 164.166 141.029 163.026 141.261L146.552 144.628C145.414 144.86 144.438 145.506 143.804 146.446ZM162.416 147.608L165.097 159.77L152.468 162.351L149.787 150.19L162.416 147.608Z" fill="black"/>
</g>
</svg>
