<svg width="70" height="68" viewBox="0 0 22 19" fill="none" xmlns="http://www.w3.org/2000/svg">
<g id="spain">
<path id="Vector" d="M0.660003 4.91798C1.917 4.83598 3.043 5.53498 4.273 5.21798C4.473 5.16498 5.503 5.79998 4.58 6.48698C4.156 6.80098 4.072 7.19998 3.983 7.72098C3.837 8.57798 4.469 9.79798 3.039 10.205C2.759 10.285 3.026 10.518 3.099 10.657C3.43 11.286 3.384 11.867 3.338 12.592C3.285 13.446 3.094 14.153 2.82 14.913C2.726 15.177 2.712 15.755 3.146 15.76C4.411 15.772 4.672 16.743 5.153 17.583C5.484 18.16 6.034 18.892 6.744 18.183C7.749 17.179 8.865 16.576 10.238 16.911C12.548 17.475 13.262 14.972 15.035 14.562C14.545 13.132 17.464 12.349 15.756 10.637C15.404 10.283 15.797 9.66598 16.08 9.28898C17.008 8.04498 17.367 6.28898 19.309 5.94098C19.851 5.84398 20.277 5.16498 20.787 4.79498C21.289 4.42798 21.213 3.92398 21.109 3.46198C20.96 2.78198 20.462 3.18398 20.068 3.17698C19.268 3.16698 18.429 3.36098 17.726 2.69598C17.533 2.51098 17.01 2.44698 16.775 2.57598C15.537 3.26198 14.494 2.49998 13.478 2.08898C12.994 1.89298 12.564 1.73598 12.039 1.63298C10.018 1.23498 7.966 1.53198 5.924 1.31398C4.322 1.14198 2.74 0.634978 1.079 0.719978C0.0920029 0.767978 0.0020029 1.10898 2.90075e-06 1.92498C-0.0019971 3.02298 1.031 3.84198 0.660003 4.91798Z" fill="black"/>
</g>
</svg>
