
<svg width="66" height="65" viewBox="0 0 166 155" fill="none" xmlns="http://www.w3.org/2000/svg">

<g id="viking">
<g id="045   Viking Helmet">
<path id="Rectangle path" d="M132.8 95.5832H33.2C31.672 95.5832 30.4333 96.7398 30.4333 98.1666V113.667C30.4333 115.093 31.672 116.25 33.2 116.25H132.8C134.328 116.25 135.567 115.093 135.567 113.667V98.1666C135.567 96.7398 134.328 95.5832 132.8 95.5832Z" fill="#FFEB3A"/>
<path id="Shape" d="M132.8 95.5832H124.5C126.028 95.5832 127.267 96.7398 127.267 98.1666V113.667C127.267 115.093 126.028 116.25 124.5 116.25H132.8C134.328 116.25 135.567 115.093 135.567 113.667V98.1666C135.567 96.7398 134.328 95.5832 132.8 95.5832Z" fill="#FDD834"/>
<path id="Shape_2" d="M132.8 95.5832H33.2C33.3494 90.2093 34.0629 84.862 35.3303 79.6182C37.4365 69.2412 42.4156 59.5599 49.7723 51.5373C58.3204 42.9532 70.4567 38.2826 83 38.7498C95.5433 38.2826 107.68 42.9532 116.228 51.5373C123.584 59.5599 128.564 69.2412 130.67 79.6182C131.937 84.862 132.651 90.2093 132.8 95.5832Z" fill="#91562D"/>
<path id="Shape_3" d="M130.67 79.6182C128.563 69.2412 123.584 59.5599 116.228 51.5373C107.68 42.9532 95.5433 38.2826 83 38.7498C81.5613 38.7498 80.2057 38.8428 78.85 38.9332C89.9415 39.3971 100.39 43.926 107.928 51.5373C115.284 59.5599 120.263 69.2412 122.37 79.6182C123.637 84.862 124.351 90.2093 124.5 95.5832H132.8C132.651 90.2093 131.937 84.862 130.67 79.6182Z" fill="#6D4122"/>
<path id="Shape_4" d="M49.7723 51.5373C42.4156 59.5599 37.4365 69.2412 35.3303 79.6182C12.8097 76.0274 2.76666 60.9148 2.76666 38.7498C2.76666 10.8756 34.7493 2.86722 35.939 2.60889C35.192 3.17722 22.2163 13.5106 24.9 33.5831C26.726 47.1973 40.5317 50.7106 49.7723 51.5373V51.5373Z" fill="#7F8E94"/>
<path id="Shape_5" d="M24.9 33.5831C22.2163 13.5106 35.192 3.17722 35.939 2.60889C31.264 3.85087 26.7897 5.67564 22.6369 8.0339C17.3179 15.5633 15.1678 24.6629 16.6 33.5831C18.426 47.1973 32.2317 50.7106 41.4723 51.5373C34.5347 59.0447 29.7327 68.0621 27.509 77.7582C30.0554 78.5839 32.6718 79.2078 35.3303 79.6234C37.4365 69.2464 42.4156 59.5651 49.7723 51.5425C40.5317 50.7106 26.726 47.1973 24.9 33.5831V33.5831Z" fill="#545C60"/>
<path id="Shape_6" d="M163.233 38.7498C163.233 60.9148 153.19 76.0274 130.67 79.6182C128.563 69.2412 123.584 59.5599 116.228 51.5373C125.468 50.7106 139.274 47.1973 141.1 33.5831C143.784 13.5106 130.808 3.17722 130.061 2.60889C131.251 2.86722 163.233 10.8756 163.233 38.7498V38.7498Z" fill="#7F8E94"/>
<path id="Shape_7" d="M130.061 2.60889C131.978 4.20294 133.66 6.02716 135.063 8.0339C144.298 13.2135 154.933 22.6737 154.933 38.7498C154.933 58.161 147.228 72.1601 130.191 77.7582C130.352 78.3808 130.529 79.0163 130.67 79.6234C153.19 76.0274 163.233 60.9148 163.233 38.7498C163.233 10.8756 131.251 2.86722 130.061 2.60889V2.60889Z" fill="#545C60"/>
<path id="Shape_8" d="M91.3 116.25C91.3 116.25 91.3 136.917 94.0667 144.667L83 152.417L71.9333 144.667C74.7 136.917 74.7 116.25 74.7 116.25H91.3Z" fill="#FFDC00"/>
<path id="Shape_9" d="M91.3 116.25H83C83 116.25 83 136.917 85.7667 144.667L78.85 149.51L83 152.417L94.0667 144.667C91.3 136.917 91.3 116.25 91.3 116.25Z" fill="#FEC108"/>
<path id="Shape_10" d="M91.3 39.3181V95.5832H74.7V39.3181C80.2036 38.5603 85.7964 38.5603 91.3 39.3181Z" fill="#FFDC00"/>
<path id="Shape_11" d="M83 38.7498C81.5752 38.7498 80.1946 38.8015 78.85 38.8945C80.2748 38.99 81.6609 39.1321 83 39.3181V95.5832H91.3V39.3181C88.5522 38.9376 85.7779 38.7477 83 38.7498V38.7498Z" fill="#FEC108"/>
<path id="Shape_12" d="M49.7723 51.5373C42.4156 59.5599 37.4365 69.2412 35.3303 79.6182C31.6152 79.0513 27.9905 78.0533 24.5403 76.6474C26.8333 66.6247 31.3372 57.1581 37.765 48.8506C41.5986 50.309 45.6473 51.2149 49.7723 51.5373V51.5373Z" fill="#FFDC00"/>
<path id="Shape_13" d="M141.46 76.6474C138.01 78.0533 134.385 79.0513 130.67 79.6182C128.564 69.2412 123.584 59.5599 116.228 51.5373C120.353 51.2149 124.401 50.309 128.235 48.8506C134.663 57.1581 139.167 66.6247 141.46 76.6474V76.6474Z" fill="#FFDC00"/>
<g id="Group">
<path id="Shape_14" d="M131.074 0.188297C129.845 -0.285346 128.43 0.123138 127.703 1.16127C126.975 2.19939 127.14 3.57394 128.097 4.43531C128.158 4.49294 128.223 4.54728 128.29 4.59806C128.805 4.99331 140.854 14.4147 138.336 33.2524C136.864 44.2213 126.276 47.8044 117.157 48.8274C108.178 40.3192 95.7839 35.725 83 36.1664C70.2078 35.7226 57.8051 40.321 48.8234 48.8377C39.6934 47.8044 29.1164 44.2342 27.6445 33.2628C25.1269 14.4354 37.1757 5.00106 37.6903 4.60839C37.7622 4.55414 37.8591 4.46889 37.9227 4.40947C38.4384 3.93096 38.7282 3.28001 38.7278 2.60114C38.728 1.77217 38.3022 0.99347 37.5829 0.507543C36.8637 0.0216156 35.9383 -0.1125 35.0952 0.146964C32.1321 0.906466 0 9.88615 0 38.7498C0 62.4984 11.1165 77.2415 32.1404 81.6332C31.3077 85.6106 30.7633 89.636 30.5108 93.6819C28.763 94.5856 27.6751 96.3011 27.6667 98.1666V113.667C27.6667 116.52 30.144 118.833 33.2 118.833H71.9029C71.8005 124.517 71.3496 138.136 69.3078 143.85C68.9317 144.905 69.3206 146.066 70.2733 146.733L81.34 154.483C82.3237 155.172 83.6763 155.172 84.66 154.483L95.7267 146.733C96.6794 146.066 97.0683 144.905 96.6922 143.85C94.6532 138.141 94.2022 124.517 94.0971 118.833H132.8C135.856 118.833 138.333 116.52 138.333 113.667V98.1666C138.326 96.3001 137.238 94.5835 135.489 93.6793C135.237 89.6334 134.692 85.6081 133.86 81.6306C154.884 77.2415 166 62.4984 166 38.7498C166 10.3537 134.916 1.20613 131.074 0.188297V0.188297ZM129.936 92.9999H118.87C117.954 75.2282 111.237 58.1436 99.6194 44.0405C125.587 53.2966 129.391 83.8135 129.936 92.9999ZM113.336 92.9999H94.0667V45.7635C105.629 59.236 112.37 75.7586 113.336 92.9999V92.9999ZM88.5333 41.6276V92.9999H77.4667V41.625C79.3045 41.4387 81.1514 41.3413 83 41.3331C84.8487 41.3408 86.6957 41.4391 88.5333 41.6276ZM52.6635 92.9999C53.6302 75.7586 60.3705 59.236 71.9333 45.7635V92.9999H52.6635ZM66.4 44.0275C54.7731 58.1322 48.0477 75.2216 47.1274 92.9999H36.0607C36.5947 83.8135 40.3629 53.2733 66.4 44.0275V44.0275ZM5.53333 38.7498C5.53333 21.7566 18.2351 12.7433 27.39 8.4524C22.6323 16.146 20.7893 25.1118 22.1582 33.9034C22.9352 40.6578 27.2329 46.6187 33.6427 49.8323C28.6582 56.9093 24.9627 64.7079 22.706 72.9118C11.2991 66.9082 5.53333 55.4717 5.53333 38.7498V38.7498ZM27.8216 75.087C29.9742 66.8463 33.6813 59.0293 38.7693 52.0023C40.6786 52.6155 42.6334 53.0973 44.618 53.4438C39.2915 60.4062 35.4635 68.2681 33.3466 76.5931C31.4712 76.2063 29.6254 75.7032 27.8216 75.087ZM90.9016 143.662L83 149.187L75.1095 143.662C76.6755 135.467 77.4551 127.158 77.439 118.833H88.561C88.5449 127.158 89.3245 135.467 90.8905 143.662H90.9016ZM33.2 113.667V98.1666H132.8V113.667H33.2ZM121.382 53.4438C123.367 53.0973 125.321 52.6155 127.231 52.0023C132.319 59.0293 136.026 66.8463 138.178 75.087C136.373 75.7056 134.524 76.2088 132.645 76.5931C130.53 68.2691 126.705 60.4074 121.382 53.4438V53.4438ZM143.294 72.9118C141.036 64.7085 137.34 56.9101 132.357 49.8323C138.768 46.6193 143.067 40.6583 143.845 33.9034C145.2 25.1768 143.401 16.2774 138.732 8.61256C147.873 13.012 160.467 22.095 160.467 38.7498C160.467 55.4717 154.701 66.9082 143.294 72.9118V72.9118Z" fill="black"/>
<path id="Oval" d="M83 108.5C84.528 108.5 85.7667 107.343 85.7667 105.917C85.7667 104.49 84.528 103.333 83 103.333C81.472 103.333 80.2333 104.49 80.2333 105.917C80.2333 107.343 81.472 108.5 83 108.5Z" fill="black"/>
<path id="Oval_2" d="M63.6333 108.5C65.1613 108.5 66.4 107.343 66.4 105.917C66.4 104.49 65.1613 103.333 63.6333 103.333C62.1053 103.333 60.8667 104.49 60.8667 105.917C60.8667 107.343 62.1053 108.5 63.6333 108.5Z" fill="black"/>
<path id="Oval_3" d="M44.2667 108.5C45.7947 108.5 47.0333 107.343 47.0333 105.917C47.0333 104.49 45.7947 103.333 44.2667 103.333C42.7387 103.333 41.5 104.49 41.5 105.917C41.5 107.343 42.7387 108.5 44.2667 108.5Z" fill="black"/>
<path id="Oval_4" d="M121.733 108.5C123.261 108.5 124.5 107.343 124.5 105.917C124.5 104.49 123.261 103.333 121.733 103.333C120.205 103.333 118.967 104.49 118.967 105.917C118.967 107.343 120.205 108.5 121.733 108.5Z" fill="black"/>
<path id="Oval_5" d="M102.367 108.5C103.895 108.5 105.133 107.343 105.133 105.917C105.133 104.49 103.895 103.333 102.367 103.333C100.839 103.333 99.6 104.49 99.6 105.917C99.6 107.343 100.839 108.5 102.367 108.5Z" fill="black"/>
</g>
</g>
</g>
</svg>
