<svg width="67" height="70" viewBox="0 0 167 170" fill="none" xmlns="http://www.w3.org/2000/svg">
<path d="M64.9529 21.3699C63.5193 24.59 60.9246 26.9643 58.2435 29.1637C54.6275 32.1301 51.6545 35.0745 49.551 39.3202C47.8627 42.7276 45.8861 46.4051 45.2377 50.1236C45.056 51.1655 44.6825 52.234 44.4007 53.3068C43.9229 55.1256 43.9013 56.997 43.3716 58.8211C42.9594 60.2406 42.1143 61.6271 41.9698 63.1047C41.8298 64.5344 42.5239 65.841 43.0921 67.1063C44.6098 70.4861 47.1024 73.7171 50.1345 75.8086C51.3166 76.624 52.5247 77.4641 53.7691 78.1766C54.3956 78.5352 55.3161 78.8227 55.7333 79.4337C57.5827 82.1411 54.4015 86.909 53.8072 89.5112C53.5606 90.5906 53.9758 91.427 54.3637 92.5277C55.2212 94.9615 56.0562 97.3681 57.1123 99.7232C58.8991 103.707 60.7345 108.601 65.4389 109.552C69.6272 110.399 74.8176 111.724 78.6397 109.073C82.999 106.049 85.2339 99.9068 86.6287 94.9366C87.191 92.9328 89.5616 86.741 87.5491 85.0789C86.6345 84.3235 85.0888 84.3816 84.0558 83.8075C82.088 82.7138 81.8232 80.2126 81.2475 78.2068C80.7399 76.4384 80.8472 75.5735 82.2332 74.2693C83.486 73.0902 85.0428 72.1094 86.186 70.8277C86.9594 69.9608 87.4144 68.9176 88.2305 68.0596C90.3444 65.8363 92.6726 63.6751 93.7914 60.7177C94.8263 57.9811 94.9366 55.878 94.1195 53.0288C93.4721 50.771 92.2121 48.4382 91.3017 46.2541C90.0995 43.3697 89.7593 40.0769 89.0736 37.0209C88.3672 33.8723 87.1783 31.6154 84.6834 29.5329C81.6806 27.0264 78.1524 26.8368 74.5309 25.7979C71.9767 25.0658 68.3953 23.4896 64.9529 21.3699Z" fill="#FBBB8C"/>
<path d="M24.3997 104.954C22.612 106.541 20.9645 108.409 19.2501 110.145C17.0116 112.412 14.184 115.113 13.137 118.253C12.6432 119.734 12.257 121.738 14.1465 121.47C16.3159 121.162 18.4109 120.374 20.6178 120.151C23.0337 119.907 25.4549 120.016 27.8598 120.267C28.732 120.359 29.658 120.339 30.5015 120.63C30.9072 120.77 31.5312 121.359 31.9754 121.312C33.1405 121.189 34.5342 117.294 35.4687 116.221C36.2078 115.373 37.9408 114.467 37.7131 113.407C37.3592 111.759 34.1686 110.73 32.9327 110.177C31.373 109.478 29.9991 108.67 28.5646 107.738C27.5966 107.109 24.9079 106.045 24.3997 104.954Z" fill="#FBBB8C"/>
<path d="M110.63 95.3138C108.716 97.4059 106.643 99.5575 104.389 101.336C103.45 102.076 101.975 102.62 101.175 103.487C100.508 104.211 100.709 104.105 100.799 105.095C100.935 106.597 99.5503 108.992 100.126 110.292C100.347 110.792 101.086 111.087 101.495 111.419C102.256 112.036 102.892 112.771 103.587 113.462C104.44 114.31 105.061 115.145 106.028 115.807C106.791 116.329 107.896 117.775 108.937 117.411C110.033 117.028 109.962 114.767 109.989 113.862C110.039 112.172 110.065 110.69 110.265 108.996C110.503 106.986 110.658 105.132 112.083 103.615C112.95 102.691 115.701 101.503 115.757 100.102C115.834 98.1653 112.307 95.8068 110.63 95.3138Z" fill="#FBBB8C"/>
<path d="M79.0316 28.2566C79.8213 34.7481 69.3074 36.9618 65.6409 39.9783C59.0069 45.4362 55.8956 54.8327 58.3591 63.2657C59.6325 67.6243 63.4543 70.5634 64.9224 74.7985C65.4619 76.355 65.167 77.9428 66.7672 78.7317C68.3152 79.4951 71.3398 78.5196 72.9498 78.2174C75.5615 77.7277 78.3522 75.8889 80.8543 75.7325C81.6188 77.6772 80.4629 78.7556 78.9041 79.9038C76.3064 81.8166 73.4945 83.0574 71.2185 85.5284C67.2418 89.8458 68.2327 94.7934 73.6596 96.6116C76.4275 97.539 80.6582 97.6941 81.6387 101.125C83.0928 106.213 77.1232 109.829 73.0349 110.468C70.2507 110.902 66.8957 110.443 64.3574 109.245C58.409 106.437 55.968 97.9823 53.6453 92.2663C52.3491 89.0765 52.8693 89.1409 54.9043 86.9884C56.2641 85.5503 57.3385 83.3918 57.2772 81.3996C57.1774 78.1497 54.553 76.9563 52.0996 75.6173C49.3382 74.1102 47.6356 71.8424 45.4049 69.7121C42.5072 66.9446 41.0433 64.5018 42.7687 60.6835C45.0529 55.6283 45.8759 51.182 46.6851 45.6607C47.1434 42.5343 47.4832 39.9504 49.7165 37.579C51.8357 35.3292 54.7471 33.7802 57.1184 31.8312C59.3696 29.9811 60.2379 27.7479 61.6284 25.1936C62.5788 23.4477 64.0851 20.842 66.2871 21.2929C68.3517 21.7155 68.9467 24.4634 70.3218 25.7069C73.2538 28.3578 77.3978 27.3554 79.0316 28.2566Z" fill="#EFA878"/>
<path d="M28.6856 108.613C26.2497 109.889 24.0477 113.184 22.517 115.408C21.1435 117.403 19.9699 118.602 22.3666 119.369C25.8877 120.496 29.3924 118.386 32.8296 120.871C35.2981 118.55 34.1601 114.944 38.1844 114.06C38.5132 110.537 30.1798 111.717 28.6856 108.613Z" fill="#EFA878"/>
<path d="M106.38 99.5435C105.203 100.325 103.587 101.426 102.59 102.512C101.578 103.614 101.87 103.391 101.617 104.913C101.271 107 100.327 109.432 101.711 111.249C102.453 112.222 103.868 112.753 104.723 113.627C105.718 114.645 106.445 115.902 107.405 116.896C109.857 119.436 111.82 118.176 111.363 114.548C111.108 112.525 110.212 110.733 110.317 108.626C110.418 106.589 111.444 105.861 112.569 104.435C111.484 103.306 109.937 102.856 108.679 101.948C107.511 101.106 106.47 98.9697 106.38 99.5435Z" fill="#EFA878"/>
<path d="M82.5536 56.7293C77.2976 58.4911 72.0283 59.2 66.5542 59.6764C64.3942 59.8644 62.2767 60.0201 60.1775 59.523C58.1855 59.0512 57.3672 58.7544 57.4745 61.3993C57.8907 71.6585 73.2821 75.4958 79.7726 68.8442C81.7903 66.7763 83.6084 63.9254 84.3769 61.06C84.6013 60.2236 84.9859 58.094 84.4274 57.3525C83.7454 56.4468 82.488 56.4072 82.5536 56.7293Z" fill="white"/>
<path d="M50.4354 3.98468C50.4299 3.98667 50.424 3.98866 50.4181 3.99032C46.0934 5.45657 42.1141 8.14338 38.3778 10.7409C32.9621 14.5061 30.8935 18.8962 28.9035 25.0398C27.1826 30.3523 25.5302 36.5321 25.2096 42.1232C25.0155 45.5102 25.2536 48.9999 25.9405 52.3056C26.8248 56.5609 28.4266 61.561 31.9225 64.3265C30.6156 64.9773 30.2049 67.685 30.3432 69.0842C30.5337 71.0103 32.5126 71.5817 32.8159 73.0918C33.1496 74.7536 31.2682 75.7394 32.3697 77.8302C33.5824 80.1312 34.3088 79.8958 33.1861 82.5016C32.1531 84.8999 30.3292 88.4058 30.9538 91.1527C31.7552 94.6759 33.8982 92.0907 35.5793 90.9491C38.7976 88.7637 36.8941 93.1515 38.6254 94.7008C41.3561 97.1445 43.441 92.5329 43.8148 90.4551C44.2219 88.191 43.8634 86.15 43.3546 83.9463C42.88 81.891 41.4047 80.2929 40.8946 78.4877C40.2217 76.1067 43.5969 73.3959 40.9406 71.0279C42.6432 67.9367 41.2951 64.9859 42.4615 62.1992C43.9648 58.6066 45.0233 55.7939 45.4682 51.8713C46.1714 45.6686 48.7472 39.0267 52.9294 34.3526C54.8746 32.1785 57.151 30.3693 59.3125 28.4315C60.9962 26.9221 62.6516 24.3738 64.6177 23.2827C68.2529 21.2649 70.8238 26.5403 73.8461 27.8362C78.057 29.6418 83.4695 28.3568 86.6973 32.0005C91.0609 36.9262 90.1 46.0481 92.9096 51.9872C93.9941 54.2795 95.7427 55.7966 94.6266 58.3695C93.622 60.6858 90.7983 62.1875 92.4908 64.8564C93.0026 65.6633 93.8718 64.9909 93.9351 66.5382C93.9729 67.4582 92.6193 69.0858 92.3698 70.0421C91.5638 73.1297 94.1667 73.4285 94.3679 76.1322C94.5751 78.916 90.007 83.322 91.6548 86.2233C93.1944 88.933 95.5565 84.5937 97.0566 85.0841C98.8848 85.6821 99.1548 90.2021 102.023 87.6886C105.121 84.9739 102.123 80.7345 100.781 78.2044C98.7497 74.3741 102.358 72.2704 101.538 68.6502C101.11 66.7616 99.8603 66.4645 100.458 64.4108C101.024 62.4638 102.136 61.6506 101.726 59.4264C101.351 57.3933 99.605 56.7236 98.9634 55.0515C98.2748 53.2572 99.6157 50.3825 99.9054 48.4965C101.096 40.7446 100.112 32.4411 97.005 25.2693C91.1271 11.7028 80.9394 1.87428 65.8852 1.89254C64.0036 1.89487 62.1219 1.89188 60.2405 1.8942C58.2535 1.89653 56.9573 2.73391 55.1463 3.24325C53.5266 3.69946 52.0608 3.43915 50.4354 3.98468Z" fill="#FFC94E"/>
<path d="M7.75964 131.391C9.45346 140.982 5.58668 153.449 11.4428 162.147C13.4292 165.098 16.821 164.292 19.9777 164.292C24.4639 164.292 28.1966 163.99 32.3048 162.178C34.102 161.385 35.2619 160.26 35.8966 158.411C36.3829 156.995 36.8604 156.198 38.4665 156.374C39.7356 156.513 41.0661 156.734 42.3421 156.791C45.6462 156.938 49.2028 155.77 52.0115 154.119C53.9323 152.99 56.7964 151.787 57.2319 149.34C57.7563 146.393 57.3216 143.095 57.0032 140.151C56.574 136.183 56.2126 132.206 55.9585 128.224C55.8528 126.569 55.7295 124.941 55.7318 123.281C55.7328 122.541 56.0511 120.994 55.4334 120.424C54.3534 119.427 53.5771 121.025 53.3347 121.94C52.9199 123.506 53.1723 124.886 51.9984 126.128C51.2528 126.916 50.0003 127.713 49.7413 128.839C49.4523 130.097 50.651 130.984 50.5059 132.143C50.3163 133.655 48.3518 134.384 47.0879 134.355C45.2525 134.312 44.3428 133.139 43.7414 131.513C43.4491 130.723 43.2273 128.388 42.5205 127.848C42.0332 127.475 41.2726 127.858 40.6633 127.851C39.0213 127.832 37.4394 125.918 35.8858 126.247C35.0153 126.432 33.9011 127.647 33.1959 128.156C32.4294 128.709 31.0901 129.175 30.6609 130.071C30.2916 130.842 30.4453 132.308 30.3986 133.143C30.3174 134.606 30.3862 136.299 30.7043 137.731C30.9254 138.728 31.3285 139.38 31.1413 140.443C30.7783 142.507 29.3135 143.49 27.5736 144.323C25.8714 145.139 24.1521 145.552 23.0451 143.61C21.8301 141.478 23.2564 136.67 19.7605 136.762C16.4864 136.848 14.4445 139.286 12.1114 135.449C11.8228 134.974 10.049 127.772 7.75964 131.391Z" fill="#FFC94E"/>
<path d="M111.075 107.651C111.075 112.252 110.749 116.864 110.488 121.457C110.224 126.115 109.499 130.693 110.152 135.337C110.354 136.77 110.435 137.919 111.522 138.874C112.264 139.526 113.184 140.134 114.059 140.589C116.503 141.859 119.457 142.056 122.146 142.27C123.457 142.375 124.794 142.203 126.109 142.263C126.93 142.301 128.011 142.146 128.774 142.477C129.654 142.86 129.942 143.666 130.32 144.496C130.833 145.623 131.568 146.806 132.512 147.653C134.836 149.739 139.102 150.309 142.065 150.692C144.109 150.956 146.346 151.174 148.398 150.924C149.805 150.752 151.482 150.742 152.83 150.29C153.915 149.925 154.986 149.541 155.703 148.611C156.848 147.126 157.531 145.035 157.996 143.235C159.148 138.768 159.418 133.954 159.437 129.347C159.446 127.292 159.444 125.386 159.258 123.344C159.123 121.87 159.353 120.09 158.932 118.665C158.714 117.927 157.69 117.248 156.88 117.648C155.449 118.353 155.626 121.399 154.713 122.603C153.834 123.761 151.654 124.476 150.284 124.001C148.69 123.448 148.326 122.039 146.438 122.977C144.875 123.753 145.346 124.627 145.074 126.218C144.751 128.108 143.966 130.487 142.421 131.687C140.862 132.898 138.907 132.457 137.462 131.181C136.323 130.176 136.071 127.308 135.863 125.804C135.596 123.881 136.094 122.383 136.556 120.538C136.793 119.593 137.178 118.012 136.284 117.288C135.839 116.926 135.236 117.046 134.791 116.684C134.231 116.228 134.089 115.39 133.586 114.874C133.045 114.321 132.591 114.272 131.892 114.137C130.286 113.826 128.852 114.093 127.256 114.295C126.117 114.439 124.739 113.924 124.125 114.767C123.447 115.699 123.501 117.388 122.88 118.468C122.327 119.429 121.773 119.87 120.826 120.366C118.996 121.321 117.752 121.513 117.149 119.251C116.856 118.148 118.044 116.055 117.158 115.206C116.753 114.818 115.855 114.92 115.358 114.564C114.467 113.928 114.251 112.918 114.137 111.887C113.956 110.262 113.416 107.242 111.075 107.651Z" fill="#FFC94E"/>
<path d="M27.2169 146.123C24.7217 147.647 21.5653 148.94 20.3409 151.869C19.4742 153.943 19.8063 156.497 20.1357 158.652C20.3862 160.288 20.6488 162.009 19.4357 163.325C18.2687 164.591 16.5126 164.327 15.0092 163.828C14.0001 163.493 12.0962 162.886 11.3698 162.071C10.7484 161.374 10.7615 160.27 10.5152 159.419C10.2168 158.388 9.76569 157.427 9.55335 156.361C8.57613 151.453 9.30904 146.283 7.99 141.422C7.37647 139.161 5.97817 134.483 7.63937 132.44C8.1358 131.829 9.50801 130.813 10.3632 130.915C11.3845 131.036 11.6611 132.552 11.9566 133.454C12.4321 134.905 12.3607 136.633 13.9254 137.334C15.1684 137.891 16.5406 137.094 17.7139 136.545C18.7286 136.071 19.8506 135.319 20.9338 136.07C22.3155 137.027 22.1129 139.754 22.2976 141.238C22.5135 142.973 23.4206 144.504 25.3652 144.179C26.4608 143.996 27.3408 143.35 28.2186 142.705C28.6726 142.371 29.7013 141.287 30.3035 141.545C32.2748 142.389 27.6977 145.829 27.2169 146.123Z" fill="#F2AE40"/>
<path d="M50.4469 128.968C52.2108 129.577 51.5497 134.221 50.8549 135.556C49.1905 138.755 41.7198 144.271 44.7669 148.463C45.7917 149.872 51.7545 151.686 49.2622 154.35C46.6597 157.131 42.3076 156.698 38.9597 156.476C35.4553 156.243 36.2864 149.96 36.2871 147.519C36.288 144.868 36.1576 142.247 36.0822 139.602C36.0183 137.362 35.484 135.31 35.0855 133.121C34.7867 131.478 34.7541 129.798 34.4338 128.163C34.1581 126.756 34.7733 126.454 35.9814 126.769C37.5076 127.168 38.8792 126.99 40.4158 127.224C43.5134 127.695 44.3615 130.54 45.189 133.134C45.7258 134.818 46.5628 135.111 48.24 134.532C50.4299 133.777 51.6906 133.143 50.4469 128.968Z" fill="#F2AE40"/>
<path d="M131.716 116.584C131.229 117.959 129.533 119.042 128.415 119.853C125.43 122.02 122.261 124.769 120.706 128.257C119.421 131.138 119.977 133.776 119.95 136.785C119.931 138.937 119.255 140.502 117.058 140.919C114.693 141.368 113.929 140.116 112.346 138.603C111.265 137.569 110.249 137.104 110.024 135.468C109.757 133.518 110.183 131.363 110.178 129.382C110.171 126.957 110.364 124.481 110.551 122.065C110.71 120.021 110.757 118.047 110.674 116.005C110.612 114.496 110.489 112.348 110.931 110.896C111.146 110.191 111.98 108.437 112.974 108.664C113.715 108.834 114.074 110.317 114.368 110.959C115.126 112.614 116.444 113.956 116.996 115.682C117.712 117.925 115.551 121.452 119.302 121.565C123.908 121.703 121.33 115.679 124.158 114.059C124.979 113.589 125.976 113.904 126.783 114.151C128.169 114.575 129.02 114.176 130.307 113.559C133.177 112.183 132.248 115.101 131.716 116.584Z" fill="#F2AE40"/>
<path d="M131.915 125.212C131.429 129.606 130.369 133.961 130.24 138.415C130.138 141.991 131.211 144.847 133.684 147.364C135.64 149.356 139.089 149.716 141.684 150.123C144.096 150.5 146.581 150.928 149.017 150.532C151.062 150.198 153.447 149.896 155.255 148.788C156.41 148.081 157.767 146.094 157.274 144.691C156.615 142.817 153.129 143.598 151.644 143.595C148.435 143.588 145.323 142.747 143.973 139.575C142.811 136.847 144.445 135.241 145.628 132.883C146.018 132.105 147.109 129.254 145.982 128.668C145.008 128.162 143.488 129.798 142.882 130.29C139.955 132.671 136.681 130.364 135.323 127.417C134.224 125.033 134.784 122.744 135.606 120.382C135.945 119.41 136.711 117.677 135.905 116.731C134.909 115.562 133.367 116.407 132.807 117.491C131.374 120.269 132.398 123.456 131.915 125.212Z" fill="#F2AE40"/>
<path d="M49.8486 161.809C51.8229 163.6 54.1492 165.132 56.7067 165.885C57.8314 166.216 58.9965 166.354 60.126 166.657C61.4127 167.003 62.6669 167.659 64.0094 167.745C68.9066 168.058 73.6139 168.422 78.5531 168.13C82.3683 167.904 85.7465 167.322 89.1919 165.589C92.7504 163.799 93.9188 160.863 94.2006 157.079C94.6184 151.468 93.6771 145.703 92.6721 140.211C91.6842 134.813 91.2331 128.913 91.7285 123.442C92.1199 119.12 95.1227 116.503 97.4219 113.136C98.5044 111.55 99.0159 109.848 99.7106 108.091C100.288 106.631 100.668 104.709 101.77 103.536C102.68 102.567 103.904 101.772 104.915 100.904C107.019 99.0966 109.406 96.9125 110.429 94.2609C111.606 91.2102 109.855 86.2888 107.067 84.716C106.185 84.2182 104.462 83.5499 103.575 84.3936C103.161 84.7873 103.269 85.4179 103.108 85.8877C102.914 86.4508 102.605 86.9734 102.201 87.4765C101.28 88.6223 100.115 88.9221 98.933 87.8596C98.2034 87.2039 97.9287 85.7947 97.1156 85.3173C96.2281 84.7963 95.4974 85.7409 94.727 86.154C94.0972 86.4917 93.3235 87.0365 92.6245 87.1385C89.5353 87.5884 92.3381 81.2625 89.6958 81.4703C86.8601 81.6935 87.2303 87.9582 86.9442 89.8588C86.3914 93.5347 85.5211 97.4982 83.7311 100.779C81.3243 105.19 77.6294 108.803 72.8066 110.27C68.4525 111.594 62.7964 109.365 60.095 105.683C58.7336 103.827 57.7368 101.749 56.8744 99.6209C56.1513 97.8362 56.0567 95.9393 55.2866 94.1815C54.2324 91.776 53.1616 89.8256 51.4139 87.8716C50.1526 86.4615 47.8312 84.6691 45.854 85.132C43.7042 85.6354 44.5865 88.1827 44.5623 89.8681C44.5467 90.9459 43.9694 91.8878 43.4181 92.8328C42.6004 94.2343 40.8913 95.325 39.2007 94.8406C37.1961 94.2662 37.9378 91.8553 37.2029 90.3857C37.0421 90.4037 36.9035 90.4747 36.3878 90.2938C35.1389 90.2602 31.5256 95.6996 30.4511 92.3324C30.2466 91.692 30.4156 90.7088 29.7065 90.3655C28.7831 89.9182 27.225 91.5937 26.5537 92.1173C24.3041 93.8714 22.5506 95.8032 23.3008 98.9077C24.1528 102.433 25.887 105.227 28.2785 107.931C29.911 109.776 32.5184 111.345 34.9116 111.895C35.8007 112.1 36.9084 112.123 37.8226 112.169C38.6404 112.21 39.6998 111.863 40.4783 112.014C41.3466 112.183 41.6588 112.625 42.6017 112.483C43.4123 112.361 44.2274 111.874 45.0633 111.992C46.7069 112.223 46.9646 112.694 47.8557 113.919C49.0449 115.555 50.9863 114.74 52.6416 115.186C53.6701 115.463 54.4284 116.041 54.8381 117.036C55.3737 118.337 54.6107 119.449 54.9059 120.701C55.2605 122.203 56.6545 122.877 56.8072 124.58C56.9527 126.203 56.6777 127.882 56.6252 129.504C56.5567 131.627 56.8033 133.739 56.905 135.857C57.0897 139.702 58.1246 143.332 57.3278 147.168C56.833 149.55 56.3306 151.835 54.0178 152.823C51.6452 153.837 49.756 154.359 47.8929 156.331C45.8139 158.528 48.0563 160.183 49.8486 161.809Z" fill="#E24242"/>
<path d="M25.4437 37.8274C25.4437 29.682 27.7898 22.022 33.0331 15.7091C36.1314 11.9787 48.9708 -1.69334 53.8931 5.99386C57.1493 11.0789 48.6244 16.8274 46.016 20.0059C39.6635 27.7469 33.9326 38.95 35.2846 49.3625C35.8633 53.8174 39.4388 57.9651 39.2965 62.4804C39.247 64.0573 38.7052 65.4086 38.7359 67.0323C38.7773 69.2333 38.791 71.3517 37.9941 73.4451C37.0655 75.8842 36.814 77.3691 37.4517 80.0353C38.0039 82.3449 41.767 90.5889 37.9857 91.2889C37.4426 91.3895 36.8219 90.6045 36.0423 90.823C34.9738 91.1222 34.7429 92.6937 33.9323 93.1815C30.6637 95.1474 30.5894 90.1686 31.0434 88.2232C31.4104 86.65 32.0549 85.0762 32.6417 83.5854C32.8922 82.9489 33.7438 81.6384 33.7546 80.9862C33.7826 79.2474 31.6259 78.9419 31.3092 77.2057C31.0111 75.5711 32.6808 75.0346 32.6991 73.6135C32.7163 72.2946 31.2293 71.5775 30.699 70.3858C29.8405 68.457 30.4061 67.782 31.229 66.2045C33.0823 62.6514 30.5072 62.1086 28.6672 59.6492C24.5271 54.1142 24.7192 43.5586 25.4437 37.8274Z" fill="#F2AE40"/>
<path d="M92.3952 47.1784C90.717 46.1833 90.4727 41.0747 90.2701 39.2661C90.0095 36.9353 89.6299 33.9473 87.8105 32.2935C84.5243 29.3065 79.2775 28.6082 75.1716 27.3073C71.3789 26.1057 66.9668 24.2297 66.2355 19.8313C65.9765 18.2744 65.0763 14.03 65.8842 12.6392C67.1928 10.386 74.3144 12.3925 75.9913 12.9645C88.4296 17.2073 94.5287 30.9773 96.9916 43.0649C97.9623 47.8272 98.3318 53.6521 98.0516 58.5622C97.8233 62.5658 97.0777 66.1252 97.3318 70.1966C97.6423 75.1724 98.7425 80.893 95.5695 85.2618C93.6242 87.9403 90.4649 88.0944 91.5468 83.9981C92.1345 81.7719 94.3274 78.8457 93.9843 76.4902C93.6669 74.3128 91.5944 73.9153 92.04 71.2757C92.355 69.4077 94.2243 66.8072 92.9728 65.4717C92.2043 64.652 91.2738 65.6417 90.9675 64.1652C90.732 63.0297 92.7751 60.9106 93.2784 59.9105C94.0521 58.3732 94.7906 56.6394 94.7041 54.8829C94.5538 51.8139 92.6029 49.5983 92.3952 47.1784Z" fill="#F2AE40"/>
<path d="M47.0839 99.1069C43.9771 98.6988 41.0546 99.1162 38.8667 101.617C36.9312 103.829 36.4227 107.551 33.4411 108.643C27.8022 110.709 24.2669 104.598 22.7893 100.043C21.9686 97.5131 22.3307 95.7065 24.2163 93.79C25.186 92.8046 27.0628 90.8227 28.6229 91.2673C30.2019 91.7172 30.1207 93.9258 31.7851 93.7177C33.5086 93.5022 34.2719 90.3482 36.045 90.6919C38.0343 91.0777 37.5212 94.1413 38.7796 95.2918C41.7562 98.0132 42.463 92.6196 44.5209 92.8816C47.2875 93.2336 45.5336 97.7203 47.0839 99.1069Z" fill="#C13636"/>
<path d="M57.7713 100.227C58.2704 103.198 58.3702 106.665 59.4632 109.511C61.4062 114.569 66.8768 116.619 70.4086 120.294C72.4093 122.375 74.638 124.54 75.4531 127.413C76.416 130.806 76.0138 134.743 75.7891 138.207C75.3191 145.46 75.1169 152.908 74.1605 160.112C73.8771 162.246 72.5492 167.354 69.8019 167.863C69.0266 168.007 67.0627 167.234 66.2805 167.082C64.8196 166.797 63.4578 166.16 62.0298 165.734C59.6833 165.032 45.2094 161.304 47.5563 157.193C47.9049 156.582 50.0198 155.489 50.6255 154.986C51.7045 154.089 52.6873 153.188 53.7128 152.192C55.3276 150.625 56.3815 149.156 56.8929 146.896C57.8291 142.755 57.423 138.343 57.0603 134.151C56.6819 129.779 56.9836 125.161 56.1907 120.849C55.8368 118.925 54.903 117.559 53.5712 116.222C52.0793 114.725 51.2159 115.19 49.4696 114.432C48.5472 114.032 48.5661 113.62 47.9141 112.99C47.2216 112.32 47.0259 112.181 45.9844 111.78C42.89 110.588 45.3226 108.554 46.5494 106.251C48.1395 103.265 47.6799 99.8951 46.9515 96.6309C46.534 94.7589 45.8631 93.5015 44.9061 91.9496C44.3275 91.0113 43.6634 90.0294 43.6353 88.8926C43.5424 85.1463 47.0931 86.7513 49.1516 87.6338C55.5648 90.3834 56.4856 96.9663 57.7713 100.227Z" fill="#C13636"/>
<path d="M90.9822 124.144C86.5675 124.067 84.6502 119.922 86.7299 116.052C88.1768 113.359 90.7741 111.697 92.2667 109.03C93.2478 107.276 94.1324 103.586 95.9677 102.543C99.4079 100.589 100.799 104.313 100.123 107.012C98.6835 112.766 94.1996 117.361 90.9822 124.144Z" fill="#C13636"/>
<path d="M97.8717 95.1919C97.871 93.8143 96.351 93.1392 95.7033 92.1342C95.093 91.1872 94.1559 89.2276 94.1924 88.0887C94.3206 84.0881 97.6362 87.0764 98.828 88.4639C99.6734 89.4484 100.479 91.5724 101.741 92.1033C103.397 92.7999 105.313 91.0119 106.929 92.2069C108.339 93.2491 108.993 96.6555 108.337 98.2127C107.56 100.055 105.08 101.474 103.425 102.525C98.7357 105.503 99.6738 96.8231 97.8717 95.1919Z" fill="#C13636"/>
<path d="M21.9106 120.547C18.9114 121.802 15.4158 119.848 12.4154 120.943C10.2675 121.727 7.51432 124.388 7.03322 126.662C6.83784 127.586 6.86295 128.891 7.70546 129.545C8.57014 130.217 9.72968 129.512 10.565 130.123C12.0983 131.244 11.3305 134.682 13.0831 136.206C15.2955 138.129 17.5314 136.831 19.9676 136.912C23.4824 137.028 21.3662 140.636 22.9279 142.864C24.8722 145.639 28.5257 144.35 30.1787 142.18C31.4446 140.518 32.1208 138.6 32.1658 136.497C32.2101 134.42 31.3843 133.861 30.6908 132.232C29.969 130.535 30.8017 130.24 31.8817 129.152C33.2232 127.802 33.6606 125.869 33.1192 123.986C31.8125 119.445 25.9059 118.728 21.9106 120.547Z" fill="white"/>
<path d="M38.1628 115.153C33.7986 115.574 30.7482 123.143 35.0713 125.652C37.0815 126.819 39.503 126.12 41.51 126.851C43.4739 127.567 43.5805 129.707 44.2573 131.629C45.06 133.909 46.6035 135.546 48.9421 133.531C50.921 131.825 49.1711 130.4 49.8584 128.495C50.1288 127.747 51.5985 126.676 52.1184 125.983C53.062 124.723 52.973 124.055 53.4384 122.512C54.1704 120.086 55.8994 118.822 53.5751 116.731C52.3337 115.615 51.2289 115.95 49.7833 115.476C48.0214 114.9 48.2513 113.981 47.309 112.806C44.0326 108.72 41.1297 115.136 38.1628 115.153Z" fill="white"/>
<path d="M122.603 98.4289C121.41 98.4345 120.512 98.4013 119.423 98.9664C118.065 99.6713 118.14 100.816 117.175 101.675C115.775 102.922 113.569 101.424 112.176 103.374C110.646 105.515 112.025 107.654 113.249 109.402C113.734 110.095 114.281 110.863 114.479 111.644C114.698 112.514 114.25 113.49 114.866 114.248C115.446 114.961 116.52 114.596 117.082 115.368C117.608 116.091 117.279 117.595 117.31 118.457C117.387 120.609 119.47 122.012 121.631 120.549C123.847 119.049 122.366 113.819 125.253 113.35C126.521 113.145 128.017 114.387 129.323 114.171C130.757 113.935 131.585 112.702 132.319 111.511C133.745 109.195 134.941 105.756 132.643 103.639C131.018 102.142 129.555 102.559 127.71 101.927C126.653 101.565 126.264 100.846 125.606 100.05C124.306 98.477 124.64 98.5408 122.603 98.4289Z" fill="white"/>
<path d="M150.514 107.24C147.545 107.223 144.394 107.193 141.505 106.504C138.96 105.897 136.768 105.368 134.969 107.853C133.779 109.497 132.727 112.846 133.729 114.792C134.88 117.028 137.111 116.22 136.559 119.07C136.056 121.659 135.086 123.947 136.132 126.585C136.946 128.639 139.148 131.04 141.419 131.344C143.009 131.557 144.113 130.791 144.684 129.342C145.309 127.755 144.557 125.343 145.215 123.961C145.812 122.706 146.845 123.151 148.206 123.513C150.036 124 151.646 124.562 153.424 123.393C155.558 121.99 154.542 119.611 155.828 118.14C156.803 117.024 158.759 117.801 159.889 116.766C161.152 115.611 161.057 113.309 160.119 111.966C158.152 109.148 153.788 108.271 150.514 107.24Z" fill="white"/>
<path d="M12.0181 135.293C12.0778 133.892 12.2001 131.04 10.9672 130.429C9.62534 129.763 7.83433 130.771 6.70512 129.039C5.4125 127.056 7.65102 124.29 9.24046 123.197C12.8512 120.714 12.4869 126.54 14.7622 128.217C17.4492 130.198 21.2632 126.581 23.6759 129.351C24.8641 130.715 24.367 132.342 24.6893 133.959C24.9378 135.205 25.5537 136.061 26.1848 137.092C27.209 138.767 28.437 142.103 26.5133 143.749C25.0073 145.037 23.5353 144.109 22.7946 142.578C21.7475 140.415 22.7019 137.228 20.3202 136.552C17.6903 135.806 12.3626 139.65 12.0181 135.293Z" fill="#EBEBEC"/>
<path d="M38.5161 114.973C34.7129 114.626 33.2572 120.625 34.237 123.43C35.5407 127.162 36.9661 126.947 40.2826 126.792C43.8477 126.626 42.743 130.865 44.5672 132.983C45.4287 133.984 47.1443 134.414 47.9904 133.393C49.6562 131.384 48.1933 128.483 46.9604 126.865C45.6478 125.142 44.9854 123.76 44.609 121.621C44.3957 120.41 44.4563 118.999 43.7247 117.926C42.8871 116.697 39.6965 114.874 38.5161 114.973Z" fill="#EBEBEC"/>
<path d="M116.244 102.205C111.453 101.938 111.344 106.322 113.378 109.218C114.202 110.391 114.491 111.242 114.83 112.635C115.261 114.403 115.694 114.266 116.774 115.416C118.515 117.269 116.814 122.594 121.327 120.336C122.72 119.639 123.477 117.791 123.662 116.321C123.785 115.349 123.412 114.464 124.013 113.715C124.961 112.534 126.514 113.297 127.642 113.003C128.91 112.673 129.814 111.731 129.642 110.218C129.37 107.815 126.707 107.6 124.833 107.33C122.106 106.937 121.331 106.189 120.258 103.681C119.467 101.828 118.015 99.9004 116.244 102.205Z" fill="#EBEBEC"/>
<path d="M140.092 106.162C135.796 106.232 131.502 111.074 134.038 115.158C134.866 116.492 136.436 116.912 136.389 118.48C136.368 119.181 135.688 120.336 135.587 121.152C135.445 122.299 135.553 123.383 135.66 124.504C135.882 126.82 137.531 131.61 140.418 131.396C142.137 131.269 144.276 128.804 144.848 127.255C145.341 125.921 144.397 123.52 145.741 122.653C146.883 121.916 149.096 123.067 150.284 123.163C152.431 123.337 154.614 122.148 155.434 120.008C156.648 116.841 153.355 116.621 151.017 116.056C147.853 115.291 144.314 114.717 143.971 110.885C143.719 108.076 143.358 105.636 140.092 106.162Z" fill="#EBEBEC"/>
<path d="M159.955 109.571C158.564 108.112 156.92 107.175 155.152 106.631C152.973 105.701 150.493 105.369 148.202 105.389C144.203 105.425 140.727 103.253 136.748 104.876C136.119 105.132 135.526 105.46 134.978 105.844C134.777 104.747 134.267 103.678 133.599 102.833C132.109 100.95 130.24 100.43 128.082 100.189C127.701 99.6447 127.456 99.0032 126.898 98.5251C126.302 98.0141 125.614 97.6436 124.877 97.3849C123.263 96.8175 121.403 96.7902 119.802 97.4148C119.054 97.7063 118.356 98.1439 117.813 98.7486C117.675 98.903 117.551 99.0736 117.439 99.2523C116.905 98.0722 115.595 97.286 114.7 96.4091C113.808 95.5358 113.04 94.4514 112.085 93.6353C112.204 93.1299 112.293 92.6156 112.348 92.0917C112.627 89.4105 111.838 86.7091 109.988 84.7508C108.755 83.4465 106.588 82.1158 104.711 82.4508C104.58 81.9969 104.433 81.551 104.284 81.1183C103.632 79.2254 102.89 76.6927 101.43 75.1441C102.02 74.4814 102.486 73.6802 102.793 72.7717C103.447 70.839 103.548 67.7956 102.2 66.06C102.351 65.8678 102.494 65.6696 102.626 65.462C104.52 62.4625 104.121 56.4079 100.492 54.9954C102.851 51.0788 103.156 45.9157 102.728 41.4827C102.178 35.797 100.345 30.4081 98.1492 25.1846C96.1034 20.3177 93.9396 15.3349 90.6844 11.1642C87.6096 7.22398 83.445 4.48505 78.8496 2.72229C69.8433 -0.732831 59.1523 -0.833768 49.9879 2.0486C40.7983 4.93894 33.2676 11.2273 28.8366 19.9355C24.5474 28.3645 22.6898 38.6465 23.7959 48.0808C24.3259 52.6024 25.5973 57.1486 28.2416 60.8846C28.8962 61.8094 29.6804 62.755 30.562 63.6196C29.1109 65.209 28.6135 68.0436 29.1891 69.9338C29.5708 71.1873 30.3151 72.2136 31.2695 72.9826C30.3099 74.6198 30.166 76.7657 31.2489 78.403C31.6573 79.0206 32.2115 79.5352 32.8482 79.9443C31.5607 81.3282 30.8931 83.2736 30.2534 85.0592C29.7981 86.3306 29.3085 87.7769 29.0955 89.2289C26.3368 89.3408 22.8881 92.4141 21.86 94.4942C20.2885 97.6741 21.511 101.544 23.2225 104.386C22.1892 104.924 21.2677 105.808 20.4621 106.563C18.8368 108.085 17.3497 109.783 15.9537 111.523C14.65 113.148 13.4301 114.85 12.3348 116.628C11.6936 117.67 10.5931 119.174 10.3171 120.584C9.13149 121.139 8.02446 121.902 7.04497 122.93C5.41313 124.642 4.1541 127.272 5.16719 129.635C5.48782 130.384 5.96827 130.947 6.54788 131.363C5.90173 134.312 6.38316 137.703 6.54331 140.626C6.7351 144.13 6.97745 147.632 7.26905 151.129C7.7296 156.65 7.66404 163.304 13.8199 165.367C16.6733 166.324 19.9487 166.229 22.9071 166.061C25.5732 165.911 28.3274 165.605 30.8415 164.639C33.1267 163.762 35.2074 162.414 36.5535 160.292C37.0395 159.526 37.3774 158.705 37.6139 157.852C40.0944 158.518 42.967 158.547 45.6592 158.156C48.1936 163.28 54.1009 165.907 59.2437 167.508C66.1083 169.644 73.4449 170.438 80.5946 169.769C86.0811 169.255 92.3916 167.647 95.1324 162.23C98.4444 155.683 95.4227 147.904 94.2191 141.195C93.4699 137.018 92.9441 132.781 93.0524 128.527C93.0965 126.799 93.2706 125.092 93.5345 123.39C94.3783 120.957 95.1748 118.521 96.7949 116.431C98.0109 114.863 99.3749 113.389 100.467 111.755C101.34 113.438 102.805 115.037 103.944 116.25C105.278 117.671 106.825 119.035 108.62 119.804C108.61 120.037 108.598 120.271 108.589 120.504C108.481 123.26 108.407 126.018 108.337 128.776C108.277 131.16 107.913 133.82 108.49 136.162C109.489 140.221 114.002 142.826 117.644 143.966C121.177 145.072 125.712 145.479 129.387 144.493C129.623 145.346 129.961 146.166 130.447 146.932C131.793 149.054 133.874 150.402 136.159 151.28C138.674 152.246 141.428 152.552 144.094 152.702C147.052 152.869 150.327 152.964 153.181 152.008C159.337 149.944 159.271 143.291 159.732 137.77C160.023 134.272 160.265 130.771 160.457 127.267C160.617 124.343 161.099 120.953 160.453 118.004C161.032 117.587 161.513 117.024 161.833 116.276C162.846 113.912 161.586 111.283 159.955 109.571ZM101.474 83.5319C101.694 84.3845 102.281 86.7503 100.929 87.0468C99.4509 87.3708 98.8452 84.6844 98.5784 83.6856C98.2859 82.5912 96.9009 82.233 96.1158 83.0239C95.5711 83.5724 93.8287 85.8541 93.0769 85.6114C92.2833 85.3551 93.3486 82.5843 93.5825 81.8478C94.045 80.3922 95.1073 78.6361 95.4844 76.9659C95.9795 77.0725 96.4818 77.128 96.9756 77.1296C97.6847 77.132 98.354 77.0161 98.9741 76.8009C99.1988 77.5045 99.5387 78.1656 99.857 78.8924C100.513 80.3899 101.064 81.9454 101.474 83.5319ZM73.3731 103.239C72.986 101.295 72.0825 98.0599 70.1306 97.1883C69.9561 97.1103 69.7086 97.1571 69.6623 97.3822C69.2875 99.2038 70.2908 101.503 70.5123 103.335C70.7341 105.171 70.5152 106.987 70.511 108.803C68.2092 108.911 65.8891 108.395 63.8368 107.138C59.2332 104.318 58.4038 98.4102 56.4412 93.7681C55.8554 92.3825 55.1013 91.0438 54.1984 89.8415C56.0146 88.6272 57.1333 86.6002 57.5596 84.3716C57.7844 83.1965 57.8662 81.6147 57.5929 80.1774C58.6735 80.4988 59.773 80.7561 60.8859 80.94C67.3543 82.0082 73.9713 80.7006 79.6643 77.5776C79.1849 79.7321 79.7107 82.2253 81.0874 83.8473C82.1941 85.1509 83.9186 86.0125 85.5296 85.8737C85.3737 87.5282 85.4118 89.2501 85.2602 90.7243C84.6551 96.603 82.7323 102.453 77.8945 106.112C76.627 107.071 75.2026 107.793 73.7084 108.251C73.8885 106.584 73.6915 104.838 73.3731 103.239ZM42.7384 70.7958C42.8975 70.5355 43.0436 70.2559 43.1767 69.9644C44.4358 71.8985 46.0467 73.5706 47.8253 75.0129C49.7977 76.6123 51.9791 77.9425 54.292 78.9628C54.2571 80.3411 54.6606 81.8206 54.3064 83.1889C53.8827 84.8251 52.9104 86.1074 51.941 87.4213C49.9491 85.7256 47.5275 84.6804 44.7844 84.8039C44.1305 82.5384 43.1327 80.3523 42.1212 78.4657C42.4487 78.0298 42.7269 77.551 42.9406 77.0343C43.6921 75.2175 43.8757 72.525 42.7384 70.7958ZM43.1986 63.9968C44.9103 61.6785 45.6178 58.4602 46.1208 55.7159C47.1032 50.3539 47.6972 44.8545 50.4761 40.0706C53.2408 35.3112 57.6115 32.5583 61.6508 29.0677C63.523 27.4497 65.2204 25.4914 66.3333 23.2777C70.0821 31.3152 83.4339 26.7983 87.0424 35.2146C87.9817 37.4057 88.3079 39.8484 88.8275 42.1637C89.4306 44.8512 90.3347 47.4407 91.3909 49.9757C91.9219 51.2504 92.4852 52.5095 93.0678 53.7606C93.2882 54.2344 93.4957 54.7534 93.7224 55.2663C93.6937 55.3022 93.6627 55.3334 93.6356 55.3729C91.9793 57.7855 90.961 60.6433 89.441 63.1624C87.9974 65.555 86.3369 67.8019 84.3821 69.7878C80.4612 73.7715 75.4107 76.4755 69.9679 77.5228C64.6526 78.5454 58.9485 77.7512 54.0996 75.3068C51.7697 74.1324 49.6206 72.6266 47.7637 70.7709C46.793 69.801 45.8941 68.7684 45.1634 67.5983C44.7293 66.9027 44.2071 66.1148 43.7531 65.3143C43.6363 64.8451 43.4576 64.3995 43.1986 63.9968ZM83.6759 81.6423C82.1726 80.2288 82.7444 77.8359 82.3132 75.9476C84.1453 74.6892 85.8512 73.2319 87.3852 71.593C88.9749 69.8947 90.3948 68.0237 91.6639 66.0614C91.8371 66.2622 92.0308 66.4535 92.2373 66.6358C90.7193 68.0506 90.2503 71.0315 90.7167 72.8225C91.0696 74.1779 91.9545 75.241 93.0782 75.9725C92.3117 76.96 91.8094 78.2831 91.3785 79.3194C91.2183 79.7049 91.0468 80.1076 90.8762 80.5227C89.2819 79.6826 87.422 80.4466 86.4964 82.1536C86.3926 82.3445 86.3029 82.5444 86.2188 82.7476C86.2113 82.744 86.2051 82.7403 86.1976 82.737C85.3518 82.3406 84.3844 82.3083 83.6759 81.6423ZM93.9765 67.7959C94.891 68.2551 95.8611 68.5509 96.6902 68.6256C97.7092 68.7173 98.7021 68.523 99.6062 68.117C99.7735 68.8879 99.9686 69.6629 99.9131 70.4701C99.7911 72.2514 98.8808 73.8678 96.9756 73.9252C95.2929 73.9757 93.5838 72.9965 93.4141 71.1903C93.3091 70.0706 93.814 68.9138 93.9765 67.7959ZM100.002 63.6189C98.9728 65.2741 97.2313 65.7426 95.5369 64.8136C94.7893 64.4039 94.1089 63.7288 93.3473 63.2955C94.3307 61.6081 95.2864 59.8195 95.8836 57.9691C97.0399 58.4439 98.2376 57.7599 99.177 56.7787C100.22 59.0044 101.537 61.1503 100.002 63.6189ZM27.4197 50.2278C25.8276 42.0415 27.1297 32.9007 30.1223 25.1962C33.2278 17.2015 38.8491 10.7292 46.5193 7.05066C54.2656 3.33556 63.48 2.6011 71.8359 4.21478C76.1205 5.0422 80.3124 6.52572 83.8974 9.10195C87.6565 11.8034 90.11 15.7532 92.1241 19.8824C96.3402 28.5255 100.89 38.8885 99.0977 48.7701C98.8981 49.8715 98.6189 50.9947 98.1753 52.0224C97.9626 52.5148 97.7066 53.0022 97.4166 53.4518C97.3148 53.6205 97.2052 53.7832 97.0882 53.9399C96.6729 53.1038 96.0366 52.0101 95.8966 51.7083C95.2469 50.3048 94.6148 48.892 94.0538 47.449C93.1007 44.9976 92.4141 42.5083 91.8952 39.9278C91.448 37.7038 91.0148 35.4816 90.0901 33.401C88.1471 29.0288 84.1802 27.1047 79.7886 26.086C75.6997 25.1374 70.7735 24.4996 68.445 20.4176C68.2147 20.0138 67.8788 19.798 67.5209 19.7233C67.6902 18.7179 67.7268 17.677 67.6002 16.6059C67.3399 14.4022 66.4286 12.8612 64.7061 11.5225C63.9937 10.9686 63.1457 12.0152 63.5384 12.7111C68.8524 22.1272 55.5987 28.0829 50.6927 33.5129C47.6375 36.8947 45.5151 40.9773 44.347 45.407C43.1686 49.8755 42.9986 54.6169 41.5902 59.0186C41.1088 60.5234 40.3801 62.2958 38.9505 63.1119C36.7929 64.3438 34.3518 62.6129 32.8048 61.1244C29.7994 58.233 28.2103 54.2935 27.4197 50.2278ZM31.8543 69.2568C31.2943 68.0001 31.6596 66.4 32.2444 65.0609C34.5032 66.7271 37.181 67.6438 39.9176 66.5743C40.0677 66.5159 40.2128 66.4518 40.355 66.3851C40.4092 67.1288 40.4092 67.8709 40.1136 68.6266C39.4616 70.2931 37.7975 71.348 36.0822 71.5037C34.39 71.6574 32.582 70.8901 31.8543 69.2568ZM32.8191 73.9242C33.6675 74.3044 34.5915 74.5315 35.5316 74.5836C37.1654 74.6743 38.8178 74.2091 40.2125 73.3292C40.3178 73.9521 40.3805 74.5796 40.2167 75.2434C39.8993 76.53 38.991 77.4796 37.7358 77.8581C36.4403 78.2486 34.7801 77.9259 33.767 76.9663C32.9421 76.185 32.8071 75.0524 32.8191 73.9242ZM32.1922 90.3814C32.2418 87.0109 34.3893 84.0552 34.8835 80.8308C35.8186 81.0828 36.7896 81.1612 37.6716 81.0536C38.3491 80.9709 39.0011 80.7787 39.6091 80.4971C40.6857 83.6189 42.4676 86.466 42.3858 89.9248C42.3636 90.8675 41.6369 95.1649 40.0269 93.7087C38.8044 92.6027 39.4776 90.2422 38.3168 88.9898C37.4407 88.0445 36.286 88.1571 35.3196 88.8719C34.5876 89.4132 33.9177 90.0669 33.2272 90.6613C32.3533 91.4133 32.1684 92.011 32.1922 90.3814ZM24.4874 96.1869C25.2672 94.1476 27.5041 93.3696 29.1507 92.1504C29.2022 92.3769 29.2622 92.6013 29.3418 92.8215C30.0701 94.8349 32.0823 95.4757 33.8228 94.3159C34.4973 93.8664 35.7103 93.0569 36.2544 92.3241C36.3868 92.9261 36.499 93.521 36.7162 94.1018C37.378 95.8708 38.9062 97.3763 40.8766 97.2232C42.8682 97.0685 44.2025 95.3001 44.8745 93.5304C45.4316 95.4993 45.8634 97.4998 45.9443 99.5534C46.0262 101.633 45.9427 103.694 45.4616 105.725C45.0711 107.372 44.1272 108.819 43.6112 110.391C43.1024 110.462 42.601 110.576 42.1222 110.744C41.721 110.885 41.3361 111.063 40.9705 111.275C40.2696 110.96 39.4424 110.937 38.5744 110.776C36.9788 110.48 35.3939 110.036 33.8926 109.408C31.1703 108.268 28.6855 106.517 26.8528 104.156C25.2754 102.125 23.4707 98.8452 24.4874 96.1869ZM14.7743 118.76C15.9211 116.992 17.1005 115.255 18.3932 113.592C19.5918 112.05 20.8851 110.602 22.2149 109.178C22.9752 108.364 23.975 107.482 24.6932 106.481C26.4154 108.612 28.5923 110.376 30.9857 111.648C32.7255 112.572 34.603 113.262 36.5124 113.719C36.6947 113.762 36.8884 113.812 37.089 113.863C35.692 114.215 34.4516 114.864 33.4007 116.192C32.732 117.037 32.2226 118.107 32.0216 119.203C31.4737 118.819 30.8804 118.492 30.2515 118.235C26.2719 116.612 22.7958 118.784 18.7976 118.749C17.4081 118.736 15.9505 118.856 14.5316 119.158C14.6131 119.019 14.6937 118.885 14.7743 118.76ZM7.79419 127.066C8.09687 125.633 9.29882 124.435 10.5112 123.621C12.8746 122.544 15.0838 121.914 17.8622 122.104C19.2601 122.2 20.6493 122.26 22.0362 122.008C23.5 121.742 24.8807 121.058 26.3811 121.016C28.589 120.954 31.2163 122.168 31.8879 124.477C32.5562 126.773 31.1765 129.024 29.1317 129.927C28.2762 130.305 28.3561 131.49 28.8591 132.081C31.1716 134.803 30.2756 140.342 27.737 142.653C26.1274 144.12 24.2878 143.903 23.5685 141.714C22.9387 139.797 23.3092 137.6 22.8953 135.614C22.7838 135.079 22.1441 134.533 21.5848 134.598C20.6079 134.712 19.6388 134.802 18.675 135.009C17.4724 135.267 16.1559 135.766 14.9113 135.533C12.4712 135.076 13.4706 132.143 12.7726 130.364C12.5406 129.772 11.9943 129.125 11.2793 129.207C9.68012 129.388 7.29938 129.408 7.79419 127.066ZM31.3256 160.855C27.2501 163.188 21.3186 163.32 16.8018 162.749C14.1347 162.411 12.0198 161.284 11.2764 158.516C10.5817 155.929 10.5487 153.111 10.3188 150.452C10.0262 147.067 9.77992 143.678 9.58063 140.287C9.43255 137.769 9.54769 134.88 9.01179 132.296C9.34579 132.347 9.68468 132.378 10.0236 132.39C10.1094 133.435 9.97432 134.515 10.3077 135.54C10.7213 136.812 11.7327 137.791 12.9001 138.35C15.3324 139.516 18.0611 138.837 20.5074 137.9C20.7403 140.33 20.5472 142.889 22.1813 144.88C23.9345 147.016 26.7875 147.002 28.9272 145.477C31.1106 143.921 32.4019 141.339 32.7438 138.687C33.0553 136.272 32.4913 134.123 31.6348 131.972C32.0715 131.771 32.476 131.517 32.8475 131.223C33.1583 133.186 33.5351 135.145 33.7856 137.112C34.1574 140.033 34.433 142.969 34.6212 145.908C34.9353 150.817 36.3503 157.979 31.3256 160.855ZM34.5469 120.97C34.6581 119.573 35.3235 117.974 36.5297 117.205C37.879 116.345 39.9349 117.116 40.9663 115.875C41.4239 115.324 41.5338 114.625 42.1137 114.148C42.7504 113.625 43.6924 113.408 44.4892 113.378C45.1703 113.352 46.0245 113.435 46.5999 113.853C47.2901 114.354 47.1371 115.03 47.5755 115.689C48.5429 117.142 50.0166 116.404 51.3995 116.556C53.838 116.824 54.034 118.759 53.0624 120.7C52.2326 122.357 51.1304 123.878 50.7237 125.738C50.5378 126.587 50.348 127.072 49.6555 127.585C48.7341 128.267 48.3404 128.097 48.3322 129.468C48.3254 130.605 49.7517 133.893 47.1247 133.038C46.2388 132.749 45.6377 131.776 45.288 130.972C44.9394 130.169 44.683 129.252 44.5512 128.383C44.4459 127.689 44.5336 127.093 44.1093 126.497C43.3382 125.414 42.04 125.477 40.8873 125.752C39.1779 126.16 37.8849 126.025 36.5672 124.695C36.2655 124.391 35.9804 124.136 35.724 123.895C34.9366 123.153 34.4226 122.533 34.5469 120.97ZM38.1031 154.446C38.1432 153.519 38.1312 152.589 38.1122 151.681C38.0278 147.603 37.7668 143.529 37.3353 139.474C36.9377 135.737 36.6158 131.777 35.6402 128.132C36.986 129.167 38.6909 129.618 40.4587 129.301C40.7966 129.241 41.8626 128.687 42.1457 128.774C41.935 128.709 42.1447 129.724 42.1617 129.875C42.3153 131.244 42.6558 132.633 43.4181 133.791C44.6572 135.674 47.203 137.003 49.3756 136.004C50.8235 135.337 51.5858 134.122 51.4618 132.539C51.3575 131.206 50.3382 129.362 51.728 128.388C52.4048 127.913 52.9655 128.055 53.3448 127.048C53.9156 125.533 53.6987 123.881 54.8169 122.563C54.869 123.271 54.9444 123.958 54.9715 124.563C55.0791 126.974 55.1802 129.384 55.264 131.796C55.431 136.617 55.5527 141.447 55.509 146.272C55.4888 148.515 54.9845 150.016 53.2643 151.478C51.8676 152.666 50.2035 153.507 48.4682 154.042C44.9208 155.138 41.6538 154.684 38.1031 154.446ZM98.326 108.071C96.9212 111.065 94.1379 113.17 92.4709 116.01C91.3527 117.914 90.7712 120.061 90.6254 122.243C89.7695 125.912 89.7202 129.939 89.8563 133.308C89.9942 136.725 90.4616 140.118 91.0403 143.484C91.6332 146.933 92.5814 150.398 92.8071 153.898C92.997 156.839 92.6304 159.994 90.5001 162.184C88.6921 164.043 86.1519 164.888 83.6893 165.395C77.4969 166.668 70.7295 166.238 64.59 164.89C61.3938 164.189 58.1536 163.262 55.2193 161.77C52.9417 160.611 51.1393 159.095 49.4601 157.293C53.0836 156.136 57.5211 153.543 58.5114 149.522C59.0881 147.179 58.7244 144.52 58.6641 142.136C58.5943 139.378 58.5196 136.62 58.4116 133.863C58.3033 131.106 58.1768 128.35 58.0016 125.597C57.8636 123.426 58.1751 120.06 56.6793 118.312C56.6157 116.745 55.7748 115.339 54.4372 114.509C53.1964 113.739 51.4909 113.36 50.0149 113.599C49.9673 113.427 49.9063 113.26 49.8258 113.1C49.661 112.747 49.4474 112.399 49.1865 112.108C48.644 111.503 47.9454 111.065 47.1978 110.774C46.8599 110.642 46.5086 110.546 46.1524 110.471C46.8367 109.587 47.311 108.476 47.6949 107.488C48.5925 105.179 49.1189 102.616 49.1323 100.128C49.1454 97.7033 48.75 95.2031 47.8893 92.9403C47.4303 91.7337 46.7271 89.8023 45.5213 88.9676C45.4873 88.2899 45.4045 87.6076 45.2832 86.9262C47.3605 87.6929 49.3913 88.7547 50.8982 90.377C52.6573 92.2703 53.611 94.7296 54.4238 97.1578C55.9819 101.813 57.4406 106.631 61.6251 109.553C70.2213 115.556 81.227 110.324 85.6548 101.692C87.1343 98.807 87.8956 95.6955 88.3197 92.4854C88.5421 90.8004 88.6837 89.1077 88.8229 87.414C88.8888 86.6138 88.7815 83.4027 89.9867 83.0315C89.7088 84.0495 89.5611 85.0811 89.6915 86.0656C89.8902 87.5654 90.9405 88.9224 92.3913 89.1668C93.3642 91.9051 95.4064 94.3813 96.748 96.8639C98.5324 100.166 100.039 104.421 98.326 108.071ZM100.228 96.5489C99.283 94.7512 98.1423 93.0638 97.0141 91.3821C96.3579 90.4043 95.7531 89.3657 95.0825 88.3839C95.5564 88.0385 96.0004 87.6172 96.4179 87.1693C96.9512 88.5705 97.8158 89.7771 99.3371 90.3521C101.399 91.1317 103.495 90.214 104.551 88.2839C105.08 87.3177 105.249 86.2811 105.209 85.2325C106.376 85.6678 107.462 86.1443 108.301 87.3363C109.582 89.1568 109.534 91.5063 108.831 93.546C108.073 95.7463 106.536 97.454 104.855 98.9787C104.076 99.6852 102.981 100.355 102.042 101.126C101.627 99.5385 100.991 97.9992 100.228 96.5489ZM110.321 104.952C108.825 106.701 109.137 110.067 108.999 112.237C108.924 113.409 108.862 114.582 108.803 115.755C107.78 115.068 106.798 114.332 105.895 113.418C104.565 112.07 103.437 110.154 101.896 109.012C102.084 108.499 102.24 107.967 102.346 107.406C102.502 106.577 102.567 105.747 102.561 104.921C103.525 104.614 104.399 103.874 105.189 103.274C106.469 102.301 107.691 101.259 108.736 100.024C109.55 99.0623 110.27 98.0184 110.853 96.9058C111.354 97.5542 111.926 98.1549 112.442 98.7084C112.952 99.2546 113.534 99.918 114.189 100.442C113.604 100.61 113.048 100.849 112.564 101.149C111.225 101.979 110.385 103.386 110.321 104.952ZM129.664 126.115C129.233 130.17 128.972 134.244 128.887 138.322C128.868 139.23 128.856 140.16 128.896 141.087C125.346 141.325 122.079 141.778 118.532 140.684C116.797 140.148 115.133 139.307 113.736 138.12C112.015 136.657 111.511 135.157 111.491 132.914C111.441 127.367 112.065 121.745 111.817 116.261C111.742 114.598 111.954 112.868 112.028 111.205C112.056 110.6 112.131 109.912 112.183 109.204C113.301 110.522 113.084 112.175 113.655 113.689C114.034 114.696 114.595 114.555 115.272 115.029C116.662 116.004 115.642 117.847 115.538 119.18C115.414 120.763 116.176 121.979 117.624 122.645C119.797 123.644 122.343 122.316 123.582 120.432C124.344 119.274 124.685 117.886 124.838 116.517C124.855 116.366 125.065 115.351 124.854 115.416C125.137 115.329 126.203 115.882 126.541 115.943C128.309 116.259 130.014 115.808 131.36 114.773C130.384 118.418 130.062 122.378 129.664 126.115ZM131.276 110.535C131.02 110.777 130.734 111.032 130.433 111.336C129.115 112.666 127.822 112.801 126.113 112.393C124.961 112.118 123.662 112.055 122.891 113.138C122.466 113.734 122.554 114.33 122.449 115.023C122.317 115.893 122.061 116.81 121.712 117.612C121.363 118.417 120.761 119.39 119.876 119.679C117.249 120.534 118.675 117.246 118.668 116.109C118.66 114.737 118.266 114.907 117.345 114.225C116.652 113.712 116.462 113.228 116.277 112.378C115.87 110.518 114.768 108.998 113.938 107.341C112.966 105.399 113.162 103.465 115.601 103.197C116.983 103.045 118.457 103.783 119.425 102.33C119.863 101.671 119.71 100.994 120.4 100.494C120.976 100.076 121.83 99.9927 122.511 100.019C123.308 100.049 124.25 100.266 124.887 100.789C125.466 101.266 125.576 101.965 126.034 102.516C127.065 103.757 129.121 102.986 130.471 103.846C131.677 104.615 132.342 106.214 132.453 107.611C132.577 109.174 132.063 109.794 131.276 110.535ZM157.419 126.928C157.22 130.319 156.973 133.708 156.681 137.093C156.451 139.752 156.418 142.57 155.723 145.157C154.98 147.924 152.865 149.052 150.198 149.389C145.681 149.961 139.749 149.828 135.674 147.496C130.649 144.62 132.064 137.458 132.378 132.549C132.567 129.609 132.842 126.674 133.214 123.753C133.465 121.786 133.841 119.827 134.152 117.864C134.524 118.158 134.928 118.412 135.365 118.613C134.509 120.765 133.945 122.913 134.256 125.329C134.598 127.98 135.889 130.563 138.073 132.118C140.212 133.643 143.066 133.657 144.819 131.521C146.452 129.53 146.259 126.972 146.493 124.541C148.939 125.479 151.667 126.157 154.1 124.991C155.268 124.432 156.279 123.453 156.692 122.181C157.025 121.156 156.891 120.076 156.976 119.031C157.315 119.019 157.654 118.988 157.988 118.937C157.452 121.521 157.567 124.41 157.419 126.928ZM155.72 115.848C155.005 115.766 154.458 116.413 154.226 117.005C153.528 118.784 154.528 121.717 152.088 122.174C150.843 122.407 149.527 121.908 148.324 121.65C147.36 121.443 146.391 121.353 145.414 121.239C144.855 121.174 144.215 121.72 144.104 122.255C143.69 124.241 144.06 126.438 143.43 128.355C142.711 130.544 140.872 130.76 139.262 129.294C136.723 126.983 135.827 121.444 138.14 118.722C138.643 118.13 138.723 116.946 137.867 116.568C135.822 115.664 134.443 113.414 135.111 111.117C135.783 108.809 138.41 107.595 140.618 107.657C142.118 107.699 143.499 108.383 144.962 108.649C146.35 108.901 147.739 108.841 149.136 108.745C151.915 108.555 154.124 109.185 156.487 110.262C157.7 111.076 158.902 112.274 159.204 113.707C159.7 116.049 157.32 116.029 155.72 115.848Z" fill="black"/>
<path d="M69.8088 51.1289C69.3662 51.4639 69.1209 52.0397 69.4376 52.5703C70.495 54.3417 73.4472 53.8469 75.0096 53.1141C76.6424 52.3481 77.6536 50.7049 77.5776 48.8601C77.5025 47.0423 76.3952 45.6086 74.7875 44.8857C73.2176 44.1798 70.8056 43.9723 69.571 45.4362C69.0638 46.0375 69.4369 46.8062 70.1656 46.8978C71.5404 47.0708 74.8912 46.6189 74.6688 49.0129C74.4489 51.3839 71.0972 50.1541 69.8088 51.1289Z" fill="black"/>
<path d="M60.0118 69.9588C63.0126 73.1802 68.4629 73.7772 72.5623 73.2137C76.8609 72.6233 80.6576 70.3888 83.1006 66.7112C84.3123 64.8867 85.1477 62.7819 85.6989 60.6592C86.1676 58.8543 86.5835 56.9375 85.8698 55.2166C85.8979 54.6813 85.2432 54.2364 84.7262 54.3211C82.3481 54.7106 80.271 56.1413 78.0273 56.988C75.8296 57.8171 73.5607 58.4964 71.2286 58.7876C69.0103 59.0648 66.7424 59.0134 64.5453 58.592C62.357 58.1723 60.338 57.2247 58.1657 56.7545C57.5841 56.6287 57.1506 57.0059 57.0665 57.4774C56.0054 59.2302 56.5358 61.6494 56.9745 63.5522C57.4967 65.8187 58.4142 68.2435 60.0118 69.9588ZM73.2711 70.0684C69.9695 70.83 65.1148 70.6584 62.4242 68.287C62.1287 68.0267 61.8641 67.7329 61.6247 67.4154C61.7376 67.4603 61.8485 67.5021 61.9552 67.5396C64.4605 68.4185 67.3605 68.5506 69.9816 68.4016C72.8144 68.2405 75.643 67.6864 78.3163 66.7165C78.7583 66.5561 79.2338 66.3805 79.7179 66.1846C78.0586 68.1366 75.8602 69.471 73.2711 70.0684ZM71.4106 61.8914C74.1644 61.5604 76.8443 60.8356 79.3989 59.7402C80.7084 59.1787 82.0317 58.6109 83.221 57.8546C83.1531 58.1647 83.0866 58.4814 83.0138 58.8112C82.792 59.8162 82.5275 60.809 82.1863 61.7739C80.5816 62.1643 78.9429 63.192 77.5064 63.7249C75.3654 64.5194 73.1194 65.0683 70.8496 65.2881C68.6316 65.5029 66.3086 65.4933 64.1017 65.1543C63.1639 65.0102 62.2034 64.7834 61.3168 64.4374C60.852 64.2561 60.4016 64.0018 59.9378 63.8006C59.8331 63.4629 59.7362 63.1282 59.6452 62.8025C59.3937 61.903 59.2887 60.8807 59.1011 59.8946C62.5292 62.1743 67.6488 62.3436 71.4106 61.8914Z" fill="black"/>
<path d="M58.4824 49.1457C59.626 49.5478 60.9842 49.2284 61.8208 48.3349C62.7096 47.3856 62.9406 45.9253 62.3841 44.7463C61.8404 43.5935 60.5553 42.8899 59.3083 43.1881C58.1749 43.459 57.3076 44.5189 57.0502 45.6501C56.9661 45.8161 56.894 45.9848 56.8493 46.1538C56.5009 47.4749 57.2456 48.7108 58.4824 49.1457Z" fill="black"/>
<path d="M83.5412 44.1984C83.8495 43.1017 83.3657 41.9638 82.5594 41.2264C81.6667 40.4099 80.4573 40.1888 79.3959 40.8177C78.5736 41.3048 78.0612 42.269 78.0123 43.2269C77.9324 43.7973 78.0514 44.4026 78.3502 44.9193C79.5348 46.9679 82.9065 46.4552 83.5412 44.1984Z" fill="black"/>
<path d="M84.0827 154.869C83.9845 154.963 83.9023 155.067 83.8263 155.173C82.6889 154.696 81.5375 154.249 80.4638 153.574C78.8626 152.567 77.343 151.431 75.763 150.39C76.9499 149.644 78.1427 148.908 79.3518 148.198C79.9908 147.824 80.9478 147.442 81.8066 146.96C82.1631 147.618 82.7926 147.999 83.535 148.032C84.3348 148.069 85.0928 147.632 85.5084 146.945C85.8208 146.427 85.9115 145.848 85.8332 145.255C85.7109 144.33 85.1394 143.591 84.248 143.305C83.6678 143.12 82.9065 143.292 82.4642 143.736C80.2984 142.36 78.0954 141.035 75.8967 139.713C77.1384 138.938 78.3759 138.157 79.6066 137.364C80.2472 136.952 80.986 136.569 81.6615 136.121C82.0229 136.486 82.5004 136.741 83.0444 136.815C84.5432 137.021 85.8505 135.832 85.8949 134.296C85.9454 132.546 84.1834 130.937 82.5232 131.981C82.4293 132.04 82.3451 132.107 82.2685 132.178C81.7306 132.516 81.2733 133.134 81.0949 133.631C81.0946 133.632 81.0943 133.633 81.0936 133.635C80.1656 134.117 79.2993 134.875 78.48 135.403C76.9036 136.418 75.3148 137.414 73.7218 138.403C72.0736 137.406 70.4327 136.395 68.7705 135.423C67.8735 134.898 66.9394 134.232 65.9592 133.738C65.8173 132.936 65.2495 132.222 64.4644 131.991C63.677 131.759 62.8159 131.962 62.2174 132.537C61.9192 132.823 61.7069 133.22 61.5865 133.615C61.5008 133.896 61.4841 134.166 61.5213 134.423C61.4903 134.672 61.5135 134.93 61.6029 135.177C61.8331 135.817 62.3289 136.362 62.9943 136.538C63.6806 136.72 64.4233 136.591 64.9872 136.147C65.0808 136.074 65.1666 135.994 65.2488 135.911C65.9517 136.361 66.7003 136.754 67.3706 137.171C68.7656 138.039 70.1776 138.88 71.5886 139.722C70.4832 140.404 69.3765 141.082 68.2633 141.75C67.2117 142.381 66.0502 142.989 65.0257 143.74C64.8567 143.517 64.6519 143.319 64.4034 143.166C63.3782 142.534 62.0034 142.953 61.4773 144.042C61.2793 144.451 61.1827 144.884 61.2134 145.313C61.1661 145.461 61.1335 145.613 61.1299 145.771C61.0917 147.44 63.0638 148.32 64.3916 147.557C64.695 147.382 64.9376 147.147 65.1229 146.876C66.4919 147.751 67.8553 148.599 69.3211 149.378C70.0272 149.753 70.7305 150.136 71.4314 150.524C69.8159 151.606 68.2219 152.723 66.6523 153.873C65.8493 154.462 65.0136 155.045 64.225 155.681C63.4363 154.886 62.1159 154.772 61.3028 155.649C61.2131 155.746 61.1368 155.851 61.0702 155.959C60.9838 156.03 60.8999 156.107 60.8204 156.192C59.8771 157.207 59.9596 159.024 61.1518 159.806C62.493 160.685 64.0964 159.827 64.6646 158.456C64.7367 158.283 64.7879 158.104 64.8264 157.923C66.1014 157.093 67.2981 156.078 68.5092 155.217C70.1848 154.026 71.89 152.88 73.6132 151.761C74.1021 152.047 74.5884 152.337 75.0712 152.632C76.7783 153.674 78.4399 154.791 80.1666 155.802C81.1298 156.365 82.2107 157.006 83.3289 157.413C83.3403 157.475 83.3501 157.536 83.3664 157.598C83.5193 158.176 83.8974 158.655 84.401 158.957C85.1913 159.43 86.3241 159.291 86.9654 158.619C87.4448 158.116 87.7094 157.454 87.7097 156.753C87.71 156.049 87.5336 155.391 87.057 154.863C86.2654 153.987 84.8893 154.093 84.0827 154.869ZM73.6393 149.077C72.422 148.367 71.1806 147.703 69.9251 147.061C68.6325 146.399 67.3562 145.914 66.0496 145.456C67.1996 144.952 68.2988 144.246 69.3468 143.639C70.8264 142.783 72.2987 141.913 73.7609 141.026C75.9388 142.337 78.1196 143.655 80.3206 144.93C79.5489 145.392 78.8182 145.94 78.2455 146.273C76.6932 147.177 75.1556 148.11 73.6393 149.077Z" fill="black"/>
</svg>
