
<svg width="60" height="60" viewBox="0 0 376 376" fill="none" xmlns="http://www.w3.org/2000/svg">

<g id="wine (1) 1">
<path id="Vector" d="M139.484 106.188V90.9678H103.097V106.188C81.871 113.71 66.7097 133.905 66.7097 157.677V363.871C66.7097 370.543 72.1079 376 78.8387 376H163.742C170.414 376 175.871 370.543 175.871 363.871V157.677C175.871 133.905 160.65 113.71 139.484 106.188Z" fill="#656D78"/>
<path id="Vector_2" d="M260.774 375.994C257.419 375.994 254.71 373.282 254.71 369.93V297.209C254.71 293.857 257.419 291.144 260.774 291.144C264.129 291.144 266.839 293.857 266.839 297.209V369.93C266.839 373.282 264.129 375.994 260.774 375.994Z" fill="#CCD1D9"/>
<path id="Vector_3" d="M103.097 0H139.484V30.2634H103.097V0Z" fill="#ED5565"/>
<path id="Vector_4" d="M103.097 30.2634H139.484V90.9678H103.097V30.2634Z" fill="#DA4453"/>
<path id="Vector_5" d="M297.102 169.866L309.231 248.645H212.258L224.387 169.866H297.102Z" fill="#E6E9ED"/>
<path id="Vector_6" d="M297.102 169.866H284.958L297.087 248.645H309.231L297.102 169.866Z" fill="#CCD1D9"/>
<path id="Vector_7" d="M309.231 248.645H309.29C309.29 275.45 287.579 297.161 260.774 297.161C233.969 297.161 212.317 275.512 212.258 248.704V248.645H309.231Z" fill="#ED5565"/>
<path id="Vector_8" d="M309.231 248.645H297.149C297.149 273.389 278.627 293.753 254.704 296.744C256.694 296.992 258.713 297.161 260.774 297.161C287.579 297.161 309.29 275.45 309.29 248.645H309.231Z" fill="#DA4453"/>
<path id="Vector_9" d="M84.9032 315.343V200.141H157.677V315.343H84.9032Z" fill="#ED5565"/>
<path id="Vector_10" d="M139.484 106.188V90.9678H121.273V112.262C142.436 119.78 157.66 139.975 157.66 163.748V188H157.677V327.484H157.66V363.871C157.66 370.543 152.202 376 145.531 376H163.742C170.413 376 175.871 370.543 175.871 363.871V157.677C175.871 133.905 160.65 113.71 139.484 106.188Z" fill="#434A54"/>
<path id="Vector_11" d="M121.273 30.2634H139.484V90.9678H121.273V30.2634Z" fill="#D3374E"/>
<g id="Group">
<path id="Vector_12" d="M121.273 0H139.484V30.2634H121.273V0Z" fill="#DA4453"/>
<path id="Vector_13" d="M121.29 233.425C121.29 238.456 117.228 242.521 112.194 242.521C107.16 242.521 103.097 238.456 103.097 233.425C103.097 228.45 107.16 224.328 112.194 224.328C117.228 224.328 121.29 228.45 121.29 233.425Z" fill="#DA4453"/>
<path id="Vector_14" d="M121.29 240.058C126.324 240.058 130.387 244.183 130.387 249.155C130.387 254.189 126.324 258.251 121.29 258.251C116.256 258.251 112.194 254.189 112.194 249.155C112.194 244.183 116.256 240.058 121.29 240.058Z" fill="#DA4453"/>
<path id="Vector_15" d="M121.29 233.425C121.29 228.45 125.353 224.328 130.387 224.328C135.421 224.328 139.484 228.45 139.484 233.425C139.484 238.456 135.421 242.521 130.387 242.521C125.353 242.521 121.29 238.456 121.29 233.425Z" fill="#DA4453"/>
<path id="Vector_16" d="M139.472 278.938H103.073C99.7181 278.938 97.0086 276.226 97.0086 272.874C97.0086 269.519 99.7181 266.809 103.073 266.809H139.472C142.824 266.809 145.537 269.519 145.537 272.874C145.537 276.226 142.824 278.938 139.472 278.938Z" fill="#DA4453"/>
<path id="Vector_17" d="M127.331 297.138H115.214C111.859 297.138 109.149 294.425 109.149 291.073C109.149 287.718 111.859 285.009 115.214 285.009H127.331C130.683 285.009 133.396 287.718 133.396 291.073C133.396 294.425 130.683 297.138 127.331 297.138Z" fill="#DA4453"/>
</g>
<path id="Vector_18" d="M297.12 375.994H224.369C221.014 375.994 218.305 373.282 218.305 369.93C218.305 366.575 221.014 363.865 224.369 363.865H297.12C300.472 363.865 303.184 366.575 303.184 369.93C303.184 373.282 300.472 375.994 297.12 375.994Z" fill="#E6E9ED"/>
</g>
</svg>
